<?xml version="1.0" encoding="utf-8"?>
<!-- Generator: Adobe Illustrator 15.1.0, SVG Export Plug-In . SVG Version: 6.00 Build 0)  -->
<!DOCTYPE svg PUBLIC "-//W3C//DTD SVG 1.1//EN" "http://www.w3.org/Graphics/SVG/1.1/DTD/svg11.dtd">
<svg version="1.1" id="Calque_1" xmlns="http://www.w3.org/2000/svg" xmlns:xlink="http://www.w3.org/1999/xlink" x="0px" y="0px"
	 width="1700.79px" height="1133.86px" viewBox="0 0 1700.79 1133.86" enable-background="new 0 0 1700.79 1133.86"
	 xml:space="preserve">
<path id="bottom" fill="#FFFFFF" stroke="#E52620" d="M22.585,13.723h36.832v10.63h36.301v-10.63h37.009v10.63h36.3v-10.63h37.009
	v10.63h36.301v-10.63h37.009v10.63h36.3v-10.63h37.009v10.63h36.301v-10.63h37.009v10.63h36.301v-10.63h37.009v10.63h36.301v-10.63
	h37.01v10.63h36.301v-10.63h37.009v10.63h36.301v-10.63h37.009v10.63h36.301v-10.63h37.01v10.63h36.3v-10.63h37.01v10.63h36.301
	v-10.63h37.008v10.63h36.301v-10.63h37.01v10.63h36.301v-10.63h36.832v37.475h-10.631v36.944h10.631v37.652h-10.631v36.943h10.631
	v37.652h-10.631v36.944h10.631v37.652h-10.631v36.944h10.631v37.652h-10.631v36.943h10.631v37.652h-10.631v36.943h10.631v37.652
	h-10.631v36.943h10.631v37.652h-10.631v36.944h10.631v37.652h-10.631v36.943h10.631v37.475h-36.832v-10.63h-36.301v10.63h-37.01
	v-10.63h-36.301v10.63h-37.01v-10.63h-36.299v10.63h-37.01v-10.63h-36.3v10.63h-37.01v-10.63h-36.301v10.63h-37.009v-10.63h-36.301
	v10.63h-37.009v-10.63h-36.301v10.63h-37.01v-10.63h-36.301v10.63h-37.009v-10.63h-36.301v10.63h-37.009v-10.63h-36.301v10.63
	h-37.009v-10.63h-36.3v10.63h-37.009v-10.63h-36.301v10.63h-37.009v-10.63h-36.3v10.63H95.718v-10.63H59.417v10.63H22.585v-37.475
	h10.63v-36.943h-10.63v-37.652h10.63v-36.944h-10.63v-37.652h10.63v-36.943h-10.63v-37.652h10.63v-36.943h-10.63v-37.652h10.63
	v-36.943h-10.63V311.93h10.63v-36.944h-10.63v-37.652h10.63V200.39h-10.63v-37.652h10.63v-36.943h-10.63V88.142h10.63V51.198h-10.63
	V13.723L22.585,13.723z"/>
<path id="back" fill="#FFFFFF" stroke="#E52620" d="M22.585,743.644h36.478v-10.63h37.009v10.63h36.301v-10.63h37.009v10.63h36.3
	v-10.63h37.009v10.63h36.301v-10.63h37.009v10.63h36.3v-10.63h37.009v10.63h36.301v-10.63h37.009v10.63h36.301v-10.63h37.009v10.63
	h36.301v-10.63h37.009v10.63h36.301v-10.63h37.01v10.63h36.301v-10.63h37.009v10.63h36.301v-10.63h37.009v10.63h36.3v-10.63h37.01
	v10.63h36.301v-10.63h37.01v10.63h36.299v-10.63h37.01v10.63h36.479v52.146h-10.631v51.613h10.631v52.146H1049.1v10.63h-37.01
	v-10.63h-36.299v10.63h-37.01v-10.63H902.48v10.63h-37.01v-10.63h-36.3v10.63h-37.009v-10.63h-36.301v10.63h-37.009v-10.63h-36.301
	v10.63h-37.01v-10.63h-36.301v10.63h-37.009v-10.63h-36.301v10.63h-37.009v-10.63h-36.301v10.63h-37.009v-10.63h-36.301v10.63
	h-37.009v-10.63h-36.3v10.63h-37.009v-10.63h-36.301v10.63h-37.009v-10.63h-36.301v10.63h-37.009v-10.63H96.072v10.63H59.063v-10.63
	H22.585v-52.146h10.63V795.79h-10.63V743.644L22.585,743.644z"/>
<path id="left_side" fill="#FFFFFF" stroke="#E52620" d="M735.506,931.439h26.491v-10.63h37.652v10.63h36.943v-10.63h37.653v10.63
	h36.943v-10.63h37.652v10.63h36.943v-10.63h37.652v10.63h36.943v-10.63h37.652v10.63h36.943v-10.63h37.652v10.63h36.943v-10.63
	h37.652v10.63h36.945v-10.63h37.652v10.63h36.943v-10.63h37.652v10.63h26.49v51.791h10.631v52.323h-10.631v51.791h-26.49v10.63
	h-37.652v-10.63h-36.943v10.63h-37.652v-10.63h-36.945v10.63h-37.652v-10.63h-36.943v10.63h-37.652v-10.63h-36.943v10.63h-37.652
	v-10.63h-36.943v10.63h-37.652v-10.63h-36.943v10.63h-37.652v-10.63h-36.943v10.63h-37.653v-10.63H799.65v10.63h-37.652v-10.63
	h-26.491v-51.791h-10.63V983.23h10.63V931.439z"/>
<path id="right_side" fill="#FFFFFF" stroke="#E52620" d="M25.215,931.439h26.491v-10.63h37.652v10.63h36.944v-10.63h37.652v10.63
	h36.943v-10.63h37.652v10.63h36.944v-10.63h37.652v10.63h36.943v-10.63h37.652v10.63h36.944v-10.63h37.652v10.63h36.943v-10.63
	h37.652v10.63h36.943v-10.63h37.652v10.63h36.944v-10.63h37.652v10.63h26.49v51.791h10.63v52.323h-10.63v51.791h-26.49v10.63
	h-37.652v-10.63H611.53v10.63h-37.652v-10.63h-36.943v10.63h-37.652v-10.63h-36.943v10.63h-37.652v-10.63h-36.944v10.63H350.09
	v-10.63h-36.943v10.63h-37.652v-10.63H238.55v10.63h-37.652v-10.63h-36.943v10.63h-37.652v-10.63H89.358v10.63H51.706v-10.63H25.215
	v-51.791h-10.63V983.23h10.63V931.439z"/>
<g id="Up">
	<g id="Left">
		<g id="Button_Next">
			<circle id="Round_1_" fill="#FFFFFF" stroke="#E52620" cx="395.902" cy="588.941" r="83"/>
			<path id="Image_1_" fill="#010202" d="M446.835,587.425l-46.333-30.844c-1.212-0.812-2.779-0.889-4.055-0.201
				c-1.284,0.695-2.086,2.03-2.086,3.49v17.545h-40.53c-0.033,0-0.063,0.009-0.096,0.01c-5.912,0.062-10.526,5.725-10.526,12.957
				c0,6.896,4.203,12.358,9.724,12.898c0.29,0.067,0.588,0.111,0.898,0.111h40.53v18.179c0,1.459,0.803,2.795,2.086,3.486
				c0.585,0.312,1.226,0.467,1.866,0.467c0.761,0,1.525-0.228,2.189-0.66l46.333-30.86c1.104-0.737,1.76-1.969,1.76-3.289
				C448.596,589.386,447.939,588.155,446.835,587.425z"/>
		</g>
		<g id="Button_Cancel">
			<circle id="Round" fill="#FFFFFF" stroke="#E52620" cx="187.902" cy="588.941" r="83"/>
			<path id="Image" fill="#010202" d="M230.934,565.863l-19.953-19.96l-23.085,23.079l-23.064-23.079l-19.96,19.96l23.079,23.071
				l-23.079,23.078l19.96,19.967l23.064-23.077l23.085,23.077l19.953-19.967l-23.071-23.078L230.934,565.863z"/>
		</g>
	</g>
	<g id="Right">
		<g id="Share">
			<g id="Button_Share">
				<circle fill="#FFFFFF" stroke="#E52620" cx="806.246" cy="588.941" r="83"/>
				<g id="Image_2_">
					<path fill="#010202" d="M832.489,604.687c-3.606,0-6.919,1.227-9.574,3.267l-27.393-16.435
						c0.138-0.841,0.228-1.699,0.228-2.577c0-0.881-0.09-1.737-0.228-2.578l27.393-16.436c2.655,2.043,5.968,3.269,9.574,3.269
						c8.695,0,15.746-7.051,15.746-15.746s-7.05-15.746-15.746-15.746c-8.694,0-15.745,7.051-15.745,15.746
						c0,0.878,0.09,1.736,0.229,2.577l-27.393,16.435c-2.655-2.04-5.967-3.266-9.576-3.266c-8.695,0-15.746,7.05-15.746,15.745
						s7.051,15.745,15.746,15.745c3.609,0,6.921-1.225,9.576-3.268l27.393,16.435c-0.14,0.843-0.229,1.698-0.229,2.578
						c0,8.695,7.051,15.746,15.745,15.746c8.695,0,15.746-7.051,15.746-15.746C848.235,611.737,841.185,604.687,832.489,604.687z"/>
				</g>
			</g>
			<g id="On_what_x3F_">
				<path id="Twitter" fill="#010202" d="M963.729,629.641c-14.872,0-26.93,12.059-26.93,26.93c0,14.872,12.058,26.931,26.93,26.931
					s26.93-12.059,26.93-26.931C990.658,641.695,978.601,629.641,963.729,629.641z M977.128,650.525l0.02,0.857
					c0,8.765-6.67,18.863-18.866,18.863c-3.742,0-7.227-1.098-10.162-2.979c0.52,0.06,1.047,0.096,1.582,0.096
					c3.107,0,5.966-1.062,8.233-2.837c-2.9-0.053-5.349-1.973-6.193-4.605c0.408,0.075,0.818,0.114,1.249,0.114
					c0.606,0,1.192-0.078,1.748-0.229c-3.033-0.611-5.319-3.287-5.319-6.499v-0.086c0.896,0.496,1.915,0.796,3.003,0.832
					c-1.778-1.19-2.948-3.219-2.948-5.517c0-1.216,0.325-2.354,0.896-3.333c3.268,4.011,8.155,6.653,13.665,6.93
					c-0.113-0.486-0.171-0.996-0.171-1.512c0-3.662,2.969-6.628,6.631-6.628c1.906,0,3.629,0.803,4.842,2.091
					c1.51-0.299,2.93-0.852,4.212-1.607c-0.497,1.549-1.546,2.847-2.916,3.669c1.338-0.158,2.62-0.52,3.807-1.042
					C979.551,648.428,978.423,649.595,977.128,650.525z"/>
				<path id="WordPress" fill="#010202" d="M941.24,507.427c4.229-7.889,12.709-13.046,22.488-13.046
					c6.332,0,12.115,2.697,16.557,6.505c-1.27-0.245-2.655,0.03-4.051,0.828c-3.268,1.875-4.336,7.179-0.1,9.842
					c2.646,1.654,3.588,5.794,3.499,8.321c-0.087,2.534-6.149,14.164-6.149,14.164l-5.904-20.271c0,0-0.203-1.422-0.203-1.832
					c0-0.518,0.17-1.15,0.489-1.512c0.22-0.241,0.556-0.747,0.952-0.747h2.799v-2.252h-15.212v2.252h0.47
					c0.5,0,0.986,0.67,1.457,1.151c0.555,0.573,1.254,2.731,2.102,4.971l2.212,7.285l-4.768,11.017l-5.229-22.017
					c0,0,0.153-1.508,0.47-1.765c0.206-0.177,0.522-0.643,0.89-0.643h0.144v-2.252H941.24z M944.223,511.252
					c0,0-1.23-1.573-2.537-1.573h-1.324c-1.279,2.818-1.985,6.601-1.985,10.068c0,10.431,6.396,19.376,15.509,23.188
					L944.223,511.252z M985.547,507.226c0.481,2.286,0.381,5.058-0.559,8.108c-2.451,7.937-8.52,22.214-10.869,27.653
					c8.819-3.938,14.963-12.729,14.963-22.947C989.082,515.359,987.79,510.979,985.547,507.226z M964.24,528.655l-6.481,15.833
					c1.915,0.458,3.913,0.709,5.97,0.709c2.131,0,4.196-0.265,6.174-0.756L964.24,528.655z"/>
				<path id="Facebook" fill="#010202" d="M963.729,564.829c-14.297,0-25.89,11.593-25.89,25.89c0,14.298,11.593,25.89,25.89,25.89
					c14.298,0,25.89-11.592,25.89-25.89C989.618,576.418,978.026,564.829,963.729,564.829z M970.423,590.716l-4.245,0.003
					l-0.003,15.533h-5.821v-15.533h-3.884v-5.354l3.884-0.003l-0.006-3.151c0-4.367,1.183-7.025,6.326-7.025h4.286v5.357h-2.681
					c-2.003,0-2.102,0.745-2.102,2.143l-0.006,2.677h4.816L970.423,590.716z"/>
			</g>
		</g>
		<path id="Question_Mark" fill="#010202" d="M896.246,478.988c-13.493,0-24.471,9.319-24.471,20.774
			c0,8.647,6.267,16.335,15.697,19.397c-0.188,3.236-0.994,6.29-2.398,9.096c-1.149,2.294-1.408,3.624-0.891,4.591
			c0.312,0.589,0.883,0.928,1.561,0.928c0.003,0,0.005,0,0.008,0c0.902,0,3.303-0.034,18.496-14.377
			c9.861-2.885,16.469-10.744,16.469-19.635C920.717,488.307,909.74,478.988,896.246,478.988z M903.365,516.851l-0.277,0.078
			l-0.217,0.206c-10.293,9.73-14.519,12.667-16.168,13.552c0.12-0.296,0.287-0.663,0.514-1.118
			c1.751-3.496,2.676-7.333,2.746-11.402l0.018-1.071l-0.938-0.266c-8.863-2.526-14.818-9.386-14.818-17.066
			c0-9.961,9.879-18.064,22.021-18.064c12.141,0,22.02,8.104,22.02,18.064C918.266,507.477,912.278,514.343,903.365,516.851z
			 M898.076,512.269v3.155c0,0.425-0.312,0.769-0.695,0.769h-2.464c-0.384,0-0.695-0.344-0.695-0.769v-3.155
			c0-0.425,0.312-0.769,0.695-0.769h2.464C897.765,511.5,898.076,511.845,898.076,512.269z M901.068,487.38
			c0.477,0.52,0.719,1.187,0.719,1.983v6.309c0,0.866-0.207,1.654-0.617,2.34l-3.191,5.381v5.72c0,0.425-0.311,0.769-0.695,0.769
			h-2.27c-0.384,0-0.695-0.344-0.695-0.769v-5.358c0-0.941,0.199-1.744,0.59-2.385l3.236-5.341v-5.682h-3.796v5.539
			c0,0.426-0.312,0.77-0.696,0.77h-2.253c-0.385,0-0.695-0.344-0.695-0.77v-6.523c0-0.799,0.245-1.468,0.73-1.987
			c0.478-0.511,1.084-0.771,1.796-0.771h6.03C899.986,486.604,900.596,486.866,901.068,487.38z"/>
	</g>
	<g id="Nfc">
		<g>
			<path fill-rule="evenodd" clip-rule="evenodd" fill="#FFFFFF" d="M105.2,62.824c49.258,0,98.52,0,147.778,0
				c0,57.057,0,114.114,0,171.171c-49.354,0-98.709,0-148.063,0c0-56.773,0-113.542,0-170.316
				C104.891,63.275,104.868,62.872,105.2,62.824z M111.477,93.92c0,7.222,0,14.318,0,18.543c0,29.65,0,63.079,0,93.003
				c0,6.626-0.503,14.375,1.426,17.402c2.795,4.384,8.244,3.709,16.261,3.709c33.141,0,65.434,0,98.424,0
				c5.24,0,12.399,0.728,15.405-1.141c4.995-3.105,3.995-10.786,3.995-19.685c0-39.811,0-76.927,0-115.826
				c0-5.81,0.445-14.165-2.282-17.117c-2.995-3.24-8.803-2.567-15.691-2.567c-31.87,0-63.763,0-94.715,0
				c-5.305,0-12.606-0.531-16.261,0.285C109.282,72.481,111.477,83.144,111.477,93.92z"/>
			<path fill-rule="evenodd" clip-rule="evenodd" fill="#FFFFFF" d="M212.182,82.509c7.661-2.131,10.112,12.058,11.697,18.258
				c3.566,13.953,3.551,31.833-0.285,45.36c-1.503,5.301-4.1,16.199-8.844,16.832c-3.669,0.489-6.06-2.306-6.276-4.564
				c-0.215-2.251,1.808-5.426,2.853-8.273c3.01-8.206,5.101-15.481,5.135-27.388c0.033-11.523-1.833-19.24-5.135-27.958
				C209.591,90.194,205.977,84.235,212.182,82.509z"/>
			<path fill-rule="evenodd" clip-rule="evenodd" fill="#FFFFFF" d="M194.209,90.497c6.091-1.24,8.371,8.425,9.985,14.265
				c3.213,11.623,2.49,26.642-0.571,37.087c-1.5,5.12-3.432,12.875-7.988,13.123c-2.511,0.137-5.406-1.806-5.706-4.564
				c-0.354-3.259,3.348-9.417,4.279-12.838c3.037-11.162,1.931-26.234-1.998-36.231c-0.831-2.115-2.324-4.178-2.282-5.992
				C189.997,92.432,192.381,90.869,194.209,90.497z"/>
			<path fill-rule="evenodd" clip-rule="evenodd" fill="#FFFFFF" d="M142.287,121.593c-1.803,5.458,4.942,18.136-2.282,19.114
				c-2.278,0.308-5.047-2.074-5.992-3.994c-1.975-4.019-2.754-11.221-2.282-18.258c0.333-4.97,1.712-13.364,5.706-13.693
				c2.972-0.246,6.616,4.034,9.129,5.991c6.488,5.053,10.844,8.473,16.832,13.124c2.685,2.085,5.319,4.37,8.844,5.991
				c2.114-5.479,1.584-11.789-0.286-17.688c-1.07-3.378-5.515-11.968,0.571-13.123c7.268-1.379,10.915,13.811,11.412,20.256
				c0.681,8.83-2.256,24.887-8.273,25.39c-2.94,0.246-6.862-3.403-9.129-5.135C158.364,133.321,151.309,126.486,142.287,121.593z"/>
			<path fill-rule="evenodd" clip-rule="evenodd" fill="#FFFFFF" d="M218.173,180.647c-0.473,1.904-0.954,3.802-1.427,5.706
				c-12.32-6.845-20.661,10.151-12.267,16.832c2.605,2.074,8.238,2.21,12.267,0.856c0.292,1.756,1.161,4.283,0.856,5.706
				c-11.668,3.557-22.353-1.15-23.678-11.126C191.992,184.082,204.048,175.915,218.173,180.647z"/>
			<path fill-rule="evenodd" clip-rule="evenodd" fill="#FFFFFF" d="M159.404,200.617c-0.164-4.599-0.422-14.026-0.285-20.825
				c2.187,0,4.375,0,6.562,0c0,10.175,0,20.35,0,30.525c-1.933,0.635-5.018,0.118-7.417,0.285
				c-3.722-7.405-8.256-13.997-11.412-21.967c-0.302,6.389,0.205,14.44,0,21.682c-1.655,0.627-4.441,0.123-6.562,0.285
				c0-10.271,0-20.541,0-30.811c2.758,0,5.516,0,8.273,0C152.182,186.729,156.472,192.994,159.404,200.617z"/>
			<path fill-rule="evenodd" clip-rule="evenodd" fill="#FFFFFF" d="M190.215,179.792c-0.157,1.935,0.335,4.519-0.285,5.991
				c-3.709,0-7.418,0-11.126,0c-0.663,1.62-0.097,4.467-0.285,6.562c3.614,0,7.227,0,10.841,0c0.464,1.404,0.464,4.587,0,5.991
				c-3.614,0-7.227,0-10.841,0c0,3.994,0,7.988,0,11.982c-1.765,0.467-5.367,0.467-7.132,0c0-10.175,0-20.351,0-30.525
				C177.663,179.792,183.939,179.792,190.215,179.792z"/>
			<path fill-rule="evenodd" clip-rule="evenodd" d="M118.038,70.527c3.655-0.816,10.957-0.285,16.261-0.285
				c30.952,0,62.845,0,94.715,0c6.888,0,12.696-0.673,15.691,2.567c2.728,2.952,2.282,11.308,2.282,17.117
				c0,38.899,0,76.015,0,115.826c0,8.899,1,16.58-3.995,19.685c-3.006,1.869-10.165,1.141-15.405,1.141c-32.99,0-65.283,0-98.424,0
				c-8.017,0-13.466,0.675-16.261-3.709c-1.93-3.027-1.426-10.776-1.426-17.402c0-29.924,0-63.353,0-93.003
				c0-4.225,0-11.322,0-18.543C111.477,83.144,109.282,72.481,118.038,70.527z M211.326,94.776
				c3.302,8.717,5.168,16.434,5.135,27.958c-0.034,11.907-2.125,19.182-5.135,27.388c-1.044,2.848-3.067,6.022-2.853,8.273
				c0.216,2.259,2.606,5.053,6.276,4.564c4.745-0.633,7.341-11.531,8.844-16.832c3.836-13.528,3.851-31.408,0.285-45.36
				c-1.584-6.2-4.036-20.39-11.697-18.258C205.977,84.235,209.591,90.194,211.326,94.776z M189.93,95.346
				c-0.042,1.813,1.451,3.877,2.282,5.992c3.929,9.997,5.035,25.069,1.998,36.231c-0.931,3.42-4.634,9.579-4.279,12.838
				c0.3,2.758,3.194,4.701,5.706,4.564c4.556-0.248,6.488-8.003,7.988-13.123c3.061-10.445,3.784-25.464,0.571-37.087
				c-1.614-5.839-3.894-15.504-9.985-14.265C192.381,90.869,189.997,92.432,189.93,95.346z M166.537,139.566
				c2.267,1.732,6.189,5.381,9.129,5.135c6.018-0.503,8.954-16.56,8.273-25.39c-0.497-6.445-4.144-21.635-11.412-20.256
				c-6.086,1.155-1.641,9.745-0.571,13.123c1.87,5.899,2.399,12.209,0.286,17.688c-3.525-1.621-6.159-3.906-8.844-5.991
				c-5.988-4.651-10.344-8.07-16.832-13.124c-2.513-1.957-6.157-6.236-9.129-5.991c-3.994,0.33-5.373,8.723-5.706,13.693
				c-0.472,7.038,0.307,14.24,2.282,18.258c0.944,1.92,3.714,4.302,5.992,3.994c7.224-0.978,0.479-13.656,2.282-19.114
				C151.309,126.486,158.364,133.321,166.537,139.566z M193.924,198.62c1.325,9.976,12.01,14.683,23.678,11.126
				c0.305-1.422-0.563-3.949-0.856-5.706c-4.029,1.354-9.662,1.218-12.267-0.856c-8.394-6.681-0.053-23.677,12.267-16.832
				c0.473-1.904,0.954-3.802,1.427-5.706C204.048,175.915,191.992,184.082,193.924,198.62z M148.563,179.792
				c-2.758,0-5.515,0-8.273,0c0,10.27,0,20.54,0,30.811c2.121-0.162,4.907,0.342,6.562-0.285c0.205-7.242-0.302-15.293,0-21.682
				c3.156,7.971,7.69,14.562,11.412,21.967c2.4-0.167,5.485,0.35,7.417-0.285c0-10.175,0-20.351,0-30.525c-2.187,0-4.375,0-6.562,0
				c-0.137,6.799,0.121,16.226,0.285,20.825C156.472,192.994,152.182,186.729,148.563,179.792z M171.386,179.792
				c0,10.175,0,20.35,0,30.525c1.765,0.467,5.367,0.467,7.132,0c0-3.994,0-7.988,0-11.982c3.614,0,7.227,0,10.841,0
				c0.464-1.403,0.464-4.587,0-5.991c-3.614,0-7.227,0-10.841,0c0.188-2.095-0.377-4.942,0.285-6.562c3.708,0,7.417,0,11.126,0
				c0.62-1.472,0.128-4.056,0.285-5.991C183.939,179.792,177.663,179.792,171.386,179.792z"/>
		</g>
	</g>
</g>
<path id="polygon204" inkscape:connector-curvature="0" fill="none" stroke="#E52620" stroke-linecap="round" stroke-linejoin="round" d="
	M210.381,847.349h55.788v17.125l-8.229,5.65h-39.584l-7.976-5.65V847.349z"/>
<rect x="640.802" y="1048.845" fill="#FFFFFF" stroke="#E52620" width="31.181" height="17.009"/>
<rect x="799.278" y="1059.683" fill="#FFFFFF" stroke="#E52620" width="151.937" height="19.842"/>
<rect fill="none" stroke="#E52620" width="1700.79" height="1133.86"/>
<circle fill="#FFFFFF" stroke="#E52620" cx="1015.897" cy="519.789" r="16.229"/>
<circle fill="#FFFFFF" stroke="#E52620" cx="1015.897" cy="590.719" r="16.229"/>
<circle fill="#FFFFFF" stroke="#E52620" cx="1015.897" cy="656.57" r="16.229"/>
<circle fill="#FFFFFF" stroke="#E52620" cx="1051.002" cy="519.789" r="7.229"/>
<circle fill="#FFFFFF" stroke="#E52620" cx="1051.002" cy="590.719" r="7.229"/>
<circle fill="#FFFFFF" stroke="#E52620" cx="1051.002" cy="656.57" r="7.229"/>
<circle fill="#FFFFFF" stroke="#E52620" cx="1015.897" cy="70.072" r="7.229"/>
</svg>
