<?xml version="1.0" encoding="UTF-8" standalone="no"?>
<!-- Generator: Adobe Illustrator 15.1.0, SVG Export Plug-In . SVG Version: 6.00 Build 0)  -->

<svg
   xmlns:dc="http://purl.org/dc/elements/1.1/"
   xmlns:cc="http://creativecommons.org/ns#"
   xmlns:rdf="http://www.w3.org/1999/02/22-rdf-syntax-ns#"
   xmlns:svg="http://www.w3.org/2000/svg"
   xmlns="http://www.w3.org/2000/svg"
   xmlns:sodipodi="http://sodipodi.sourceforge.net/DTD/sodipodi-0.dtd"
   xmlns:inkscape="http://www.inkscape.org/namespaces/inkscape"
   version="1.1"
   x="0px"
   y="0px"
   width="2157.875"
   height="1105.512"
   viewBox="0 0 2157.875 1105.512"
   enable-background="new 0 0 2157.875 1105.512"
   xml:space="preserve"
   id="svg2"
   inkscape:version="0.48.2 r9819"
   sodipodi:docname="V0.2 - Box decoupe - Support.svg"><metadata
   id="metadata267"><rdf:RDF><cc:Work
       rdf:about=""><dc:format>image/svg+xml</dc:format><dc:type
         rdf:resource="http://purl.org/dc/dcmitype/StillImage" /><dc:title></dc:title></cc:Work></rdf:RDF></metadata><defs
   id="defs265">
	
		<sodipodi:namedview
   id="base"
   pagecolor="#ffffff"
   bordercolor="#666666"
   borderopacity="1.0"
   inkscape:pageopacity="0.0"
   inkscape:pageshadow="2"
   inkscape:document-units="mm"
   fit-margin-top="0"
   inkscape:current-layer="layer1"
   showgrid="false"
   fit-margin-left="0"
   fit-margin-right="0"
   fit-margin-bottom="0"
   inkscape:window-maximized="1"
   units="mm">
		</sodipodi:namedview>
	
	
	
	
	
	

	
	
		
	
	
	
	
	
	
	
	
	
	
	
	
	
	
	
	
	
	
	
	
	
	
	
	
	
	
	
	
	
	
	
	
	
	
	
	
	
	
	
	
	
	
	
	
	
	
	
	
	
	
	
	
	
	
	
	
	
	
	
	
	
	
	
	
	
	
	
	
	
	
	
	
	
	
	
	
	
	
	
	
	
	
	
	
	
	
	
	
	
	
	
	
	
	
	
	
	
	
	
	
	
	
	
	

		
		
		
	
			
		
			
			
		
			
			
		
				
				
			
				
				
			
				
				
			
				
				
				
				
				
				
				
				
			
					
					
					
				
					
					
				
						
					
	
	
	
	
	
	

	
	
		
	
	
	
	
	
	
	
	
	
	
	
	
	
	
	
	
	
	
	
	
	
	
	
	
	
	
	
	
	
	
	
	
	
	
	
	
	
	
	
	
	
	
	
	
	
	
	
	
	
	
	
	
	
	
	
	
	
	
	
	
	
	
	
	
	
	
	
	
	
	
	
	
	
	
	
	
	
	
	
	
	
	
	
	
	
	
	
	
	
	
	
	
	
	
	
	
	
	
	
	
	
	
	
	

		
		
		
	
			
		
			
			
		
			
			
		
				
				
			
				
				
			
				
				
			
				
				
				
				
				
				
				
				
			
					
					
					
				
					
					
				
						
					<sodipodi:namedview
   units="mm"
   inkscape:window-maximized="1"
   fit-margin-bottom="0"
   fit-margin-right="0"
   fit-margin-left="0"
   showgrid="false"
   inkscape:current-layer="layer1"
   fit-margin-top="0"
   inkscape:document-units="mm"
   inkscape:pageshadow="2"
   inkscape:pageopacity="0.0"
   borderopacity="1.0"
   bordercolor="#666666"
   pagecolor="#ffffff"
   id="base-8">
		</sodipodi:namedview>
	
		</defs><sodipodi:namedview
   pagecolor="#ffffff"
   bordercolor="#666666"
   borderopacity="1"
   objecttolerance="10"
   gridtolerance="10"
   guidetolerance="10"
   inkscape:pageopacity="0"
   inkscape:pageshadow="2"
   inkscape:window-width="1384"
   inkscape:window-height="856"
   id="namedview263"
   showgrid="false"
   inkscape:zoom="0.43097955"
   inkscape:cx="659.85258"
   inkscape:cy="666.29555"
   inkscape:window-x="56"
   inkscape:window-y="0"
   inkscape:window-maximized="1"
   inkscape:current-layer="svg2"
   units="mm" />


<rect
   y="237.52853"
   x="15.053785"
   height="58.973083"
   width="118.98456"
   id="rect5266"
   style="fill:none;stroke:#ff0000;stroke-width:1;stroke-miterlimit:4;stroke-opacity:1;stroke-dasharray:none" /><rect
   y="14.763527"
   x="15.480238"
   height="58.42622"
   width="118.13166"
   id="rect5272"
   style="fill:none;stroke:#ff0000;stroke-width:1;stroke-miterlimit:4;stroke-opacity:1;stroke-dasharray:none" /><rect
   y="163.47678"
   x="15.26573"
   height="58.577705"
   width="118.56065"
   id="rect5274"
   style="fill:none;stroke:#ff0000;stroke-width:1;stroke-miterlimit:4;stroke-opacity:1;stroke-dasharray:none" /><rect
   y="86.496445"
   x="15.106001"
   height="58.238621"
   width="118.88011"
   id="rect5276"
   style="fill:none;stroke:#ff0000;stroke-width:1;stroke-miterlimit:4;stroke-opacity:1;stroke-dasharray:none" /><path
   inkscape:connector-curvature="0"
   id="rect5278"
   d="m 343.13878,593.915 0,-28.6875 107.875,0 0,28.0938 13.9375,0 0,-69.5938 -13.9375,0 0,29.3125 -107.875,0 0,-30.4687 -11.625,0 0,71.3437 11.625,0 z"
   style="fill:none;stroke:#ff0000;stroke-width:1;stroke-miterlimit:4;stroke-opacity:1;stroke-dasharray:none" /><rect
   style="fill:none;stroke:#ff0000;stroke-width:1;stroke-miterlimit:4;stroke-opacity:1;stroke-dasharray:none"
   id="rect5266-1"
   width="118.98456"
   height="58.973083"
   x="18.028902"
   y="539.86786" /><rect
   style="fill:none;stroke:#ff0000;stroke-width:1;stroke-miterlimit:4;stroke-opacity:1;stroke-dasharray:none"
   id="rect5272-2"
   width="118.13166"
   height="58.42622"
   x="18.81587"
   y="312.08441" /><rect
   style="fill:none;stroke:#ff0000;stroke-width:1;stroke-miterlimit:4;stroke-opacity:1;stroke-dasharray:none"
   id="rect5274-2"
   width="118.56065"
   height="58.577705"
   x="17.040688"
   y="466.23416" /><rect
   style="fill:none;stroke:#ff0000;stroke-width:1;stroke-miterlimit:4;stroke-opacity:1;stroke-dasharray:none"
   id="rect5276-9"
   width="118.88011"
   height="58.238621"
   x="17.321497"
   y="389.29099" /><path
   style="fill:none;stroke:#ff0000;stroke-width:1;stroke-miterlimit:4;stroke-opacity:1;stroke-dasharray:none"
   d="m 196.49138,594.00533 0,-28.6875 107.87501,0 0,28.09375 13.9375,0 0,-69.59375 -13.9375,0 0,29.3125 -107.87501,0 0,-30.46875 -11.625,0 0,71.34375 11.625,0 z"
   id="rect5278-4"
   inkscape:connector-curvature="0" /><g
   id="g10640"
   transform="matrix(0,-1,1,0,689.79901,895.49901)"><g
     id="g4478"
     transform="translate(260.95812,-377.47048)"
     style="stroke-width:1;stroke-miterlimit:4;stroke-dasharray:none"><g
       style="stroke-width:1;stroke-miterlimit:4;stroke-dasharray:none"
       inkscape:label="Calque 1"
       id="layer1-3"
       transform="translate(127.03133,-561.86222)"><g
         transform="translate(1.6998089,2.6474829)"
         id="g5187"
         style="stroke-width:1;stroke-miterlimit:4;stroke-dasharray:none"><path
           transform="matrix(0.29197673,0,0,0.31022528,-35.167587,961.95275)"
           d="m 184.85792,141.20459 c 0,4.46313 -3.84422,8.08122 -8.5863,8.08122 -4.74208,0 -8.5863,-3.61809 -8.5863,-8.08122 0,-4.46314 3.84422,-8.08122 8.5863,-8.08122 4.74208,0 8.5863,3.61808 8.5863,8.08122 z"
           sodipodi:ry="8.0812206"
           sodipodi:rx="8.586297"
           sodipodi:cy="141.20459"
           sodipodi:cx="176.27162"
           id="path3842-7"
           style="fill:none;stroke:#ff0000;stroke-width:3.3226707;stroke-linecap:round;stroke-linejoin:round;stroke-miterlimit:4;stroke-opacity:1;stroke-dasharray:none"
           sodipodi:type="arc" /><path
           transform="matrix(0.29197673,0,0,0.31022528,15.855787,962.18661)"
           d="m 184.85792,141.20459 c 0,4.46313 -3.84422,8.08122 -8.5863,8.08122 -4.74208,0 -8.5863,-3.61809 -8.5863,-8.08122 0,-4.46314 3.84422,-8.08122 8.5863,-8.08122 4.74208,0 8.5863,3.61808 8.5863,8.08122 z"
           sodipodi:ry="8.0812206"
           sodipodi:rx="8.586297"
           sodipodi:cy="141.20459"
           sodipodi:cx="176.27162"
           id="path3842-9-7"
           style="fill:none;stroke:#ff0000;stroke-width:3.3226707;stroke-linecap:round;stroke-linejoin:round;stroke-miterlimit:4;stroke-opacity:1;stroke-dasharray:none"
           sodipodi:type="arc" /><path
           transform="matrix(0.29197673,0,0,0.31022528,-35.169057,979.75197)"
           d="m 184.85792,141.20459 c 0,4.46313 -3.84422,8.08122 -8.5863,8.08122 -4.74208,0 -8.5863,-3.61809 -8.5863,-8.08122 0,-4.46314 3.84422,-8.08122 8.5863,-8.08122 4.74208,0 8.5863,3.61808 8.5863,8.08122 z"
           sodipodi:ry="8.0812206"
           sodipodi:rx="8.586297"
           sodipodi:cy="141.20459"
           sodipodi:cx="176.27162"
           id="path3842-3-3"
           style="fill:none;stroke:#ff0000;stroke-width:3.3226707;stroke-linecap:round;stroke-linejoin:round;stroke-miterlimit:4;stroke-opacity:1;stroke-dasharray:none"
           sodipodi:type="arc" /><path
           transform="matrix(0.29197673,0,0,0.31022528,15.855787,979.75197)"
           d="m 184.85792,141.20459 c 0,4.46313 -3.84422,8.08122 -8.5863,8.08122 -4.74208,0 -8.5863,-3.61809 -8.5863,-8.08122 0,-4.46314 3.84422,-8.08122 8.5863,-8.08122 4.74208,0 8.5863,3.61808 8.5863,8.08122 z"
           sodipodi:ry="8.0812206"
           sodipodi:rx="8.586297"
           sodipodi:cy="141.20459"
           sodipodi:cx="176.27162"
           id="path3842-3-2-2"
           style="fill:none;stroke:#ff0000;stroke-width:3.3226707;stroke-linecap:round;stroke-linejoin:round;stroke-miterlimit:4;stroke-opacity:1;stroke-dasharray:none"
           sodipodi:type="arc" /><path
           transform="matrix(0.63806717,0,0,0.78130675,-81.722771,897.69974)"
           d="m 197.67857,127.98718 c 0,2.41625 -2.39848,4.375 -5.35714,4.375 -2.95867,0 -5.35715,-1.95875 -5.35715,-4.375 0,-2.41624 2.39848,-4.375 5.35715,-4.375 2.95866,0 5.35714,1.95876 5.35714,4.375 z"
           sodipodi:ry="4.375"
           sodipodi:rx="5.3571429"
           sodipodi:cy="127.98718"
           sodipodi:cx="192.32143"
           id="path4406-5"
           style="fill:none;stroke:#ff0000;stroke-width:1.41630256;stroke-linecap:round;stroke-linejoin:round;stroke-miterlimit:4;stroke-opacity:1;stroke-dasharray:none"
           sodipodi:type="arc" /><path
           transform="matrix(0.63806717,0,0,0.78130675,-81.724771,930.95874)"
           d="m 197.67857,127.98718 c 0,2.41625 -2.39848,4.375 -5.35714,4.375 -2.95867,0 -5.35715,-1.95875 -5.35715,-4.375 0,-2.41624 2.39848,-4.375 5.35715,-4.375 2.95866,0 5.35714,1.95876 5.35714,4.375 z"
           sodipodi:ry="4.375"
           sodipodi:rx="5.3571429"
           sodipodi:cy="127.98718"
           sodipodi:cx="192.32143"
           id="path4406-8-6"
           style="fill:none;stroke:#ff0000;stroke-width:1.41630256;stroke-linecap:round;stroke-linejoin:round;stroke-miterlimit:4;stroke-opacity:1;stroke-dasharray:none"
           sodipodi:type="arc" /></g></g></g><g
     transform="translate(514.09909,-871.92776)"
     id="g5203"
     style="stroke-width:1;stroke-miterlimit:4;stroke-dasharray:none"><path
       sodipodi:type="arc"
       style="fill:none;stroke:#ff0000;stroke-width:3.3226707;stroke-linecap:round;stroke-linejoin:round;stroke-miterlimit:4;stroke-opacity:1;stroke-dasharray:none"
       id="path3842-93"
       sodipodi:cx="176.27162"
       sodipodi:cy="141.20459"
       sodipodi:rx="8.586297"
       sodipodi:ry="8.0812206"
       d="m 184.85792,141.20459 c 0,4.46313 -3.84422,8.08122 -8.5863,8.08122 -4.74208,0 -8.5863,-3.61809 -8.5863,-8.08122 0,-4.46314 3.84422,-8.08122 8.5863,-8.08122 4.74208,0 8.5863,3.61808 8.5863,8.08122 z"
       transform="matrix(0.29197673,0,0,0.31022528,-35.167587,961.95275)" /><path
       sodipodi:type="arc"
       style="fill:none;stroke:#ff0000;stroke-width:3.3226707;stroke-linecap:round;stroke-linejoin:round;stroke-miterlimit:4;stroke-opacity:1;stroke-dasharray:none"
       id="path3842-9-0"
       sodipodi:cx="176.27162"
       sodipodi:cy="141.20459"
       sodipodi:rx="8.586297"
       sodipodi:ry="8.0812206"
       d="m 184.85792,141.20459 c 0,4.46313 -3.84422,8.08122 -8.5863,8.08122 -4.74208,0 -8.5863,-3.61809 -8.5863,-8.08122 0,-4.46314 3.84422,-8.08122 8.5863,-8.08122 4.74208,0 8.5863,3.61808 8.5863,8.08122 z"
       transform="matrix(0.29197673,0,0,0.31022528,15.855787,962.18661)" /><path
       sodipodi:type="arc"
       style="fill:none;stroke:#ff0000;stroke-width:3.3226707;stroke-linecap:round;stroke-linejoin:round;stroke-miterlimit:4;stroke-opacity:1;stroke-dasharray:none"
       id="path3842-3-5"
       sodipodi:cx="176.27162"
       sodipodi:cy="141.20459"
       sodipodi:rx="8.586297"
       sodipodi:ry="8.0812206"
       d="m 184.85792,141.20459 c 0,4.46313 -3.84422,8.08122 -8.5863,8.08122 -4.74208,0 -8.5863,-3.61809 -8.5863,-8.08122 0,-4.46314 3.84422,-8.08122 8.5863,-8.08122 4.74208,0 8.5863,3.61808 8.5863,8.08122 z"
       transform="matrix(0.29197673,0,0,0.31022528,-35.169057,979.75197)" /><path
       sodipodi:type="arc"
       style="fill:none;stroke:#ff0000;stroke-width:3.3226707;stroke-linecap:round;stroke-linejoin:round;stroke-miterlimit:4;stroke-opacity:1;stroke-dasharray:none"
       id="path3842-3-2-23"
       sodipodi:cx="176.27162"
       sodipodi:cy="141.20459"
       sodipodi:rx="8.586297"
       sodipodi:ry="8.0812206"
       d="m 184.85792,141.20459 c 0,4.46313 -3.84422,8.08122 -8.5863,8.08122 -4.74208,0 -8.5863,-3.61809 -8.5863,-8.08122 0,-4.46314 3.84422,-8.08122 8.5863,-8.08122 4.74208,0 8.5863,3.61808 8.5863,8.08122 z"
       transform="matrix(0.29197673,0,0,0.31022528,15.855787,979.75197)" /><path
       sodipodi:type="arc"
       style="fill:none;stroke:#ff0000;stroke-width:1.41630256;stroke-linecap:round;stroke-linejoin:round;stroke-miterlimit:4;stroke-opacity:1;stroke-dasharray:none"
       id="path4406-87"
       sodipodi:cx="192.32143"
       sodipodi:cy="127.98718"
       sodipodi:rx="5.3571429"
       sodipodi:ry="4.375"
       d="m 197.67857,127.98718 c 0,2.41625 -2.39848,4.375 -5.35714,4.375 -2.95867,0 -5.35715,-1.95875 -5.35715,-4.375 0,-2.41624 2.39848,-4.375 5.35715,-4.375 2.95866,0 5.35714,1.95876 5.35714,4.375 z"
       transform="matrix(0.63806717,0,0,0.78130675,-81.722771,897.69974)" /><path
       sodipodi:type="arc"
       style="fill:none;stroke:#ff0000;stroke-width:1.41630256;stroke-linecap:round;stroke-linejoin:round;stroke-miterlimit:4;stroke-opacity:1;stroke-dasharray:none"
       id="path4406-8-8"
       sodipodi:cx="192.32143"
       sodipodi:cy="127.98718"
       sodipodi:rx="5.3571429"
       sodipodi:ry="4.375"
       d="m 197.67857,127.98718 c 0,2.41625 -2.39848,4.375 -5.35714,4.375 -2.95867,0 -5.35715,-1.95875 -5.35715,-4.375 0,-2.41624 2.39848,-4.375 5.35715,-4.375 2.95866,0 5.35714,1.95876 5.35714,4.375 z"
       transform="matrix(0.63806717,0,0,0.78130675,-81.724771,930.95874)" /></g><rect
     y="10.912446"
     x="242.47087"
     height="262.7735"
     width="382.84879"
     id="rect5211"
     style="fill:none;stroke:#ff0000;stroke-width:1;stroke-miterlimit:4;stroke-opacity:1;stroke-dasharray:none" /><g
     transform="translate(387.98945,-809.81776)"
     id="layer1-0"
     inkscape:label="Calque 1"
     style="stroke-width:1;stroke-miterlimit:4;stroke-dasharray:none"><g
       transform="translate(0,2.6474749)"
       id="g5195"
       style="stroke-width:1;stroke-miterlimit:4;stroke-dasharray:none"><path
         sodipodi:type="arc"
         style="fill:none;stroke:#ff0000;stroke-width:3.3226707;stroke-linecap:round;stroke-linejoin:round;stroke-miterlimit:4;stroke-opacity:1;stroke-dasharray:none"
         id="path3842-1"
         sodipodi:cx="176.27162"
         sodipodi:cy="141.20459"
         sodipodi:rx="8.586297"
         sodipodi:ry="8.0812206"
         d="m 184.85792,141.20459 c 0,4.46313 -3.84422,8.08122 -8.5863,8.08122 -4.74208,0 -8.5863,-3.61809 -8.5863,-8.08122 0,-4.46314 3.84422,-8.08122 8.5863,-8.08122 4.74208,0 8.5863,3.61808 8.5863,8.08122 z"
         transform="matrix(0.29197673,0,0,0.31022528,-35.167587,961.95275)" /><path
         sodipodi:type="arc"
         style="fill:none;stroke:#ff0000;stroke-width:3.3226707;stroke-linecap:round;stroke-linejoin:round;stroke-miterlimit:4;stroke-opacity:1;stroke-dasharray:none"
         id="path3842-9-9"
         sodipodi:cx="176.27162"
         sodipodi:cy="141.20459"
         sodipodi:rx="8.586297"
         sodipodi:ry="8.0812206"
         d="m 184.85792,141.20459 c 0,4.46313 -3.84422,8.08122 -8.5863,8.08122 -4.74208,0 -8.5863,-3.61809 -8.5863,-8.08122 0,-4.46314 3.84422,-8.08122 8.5863,-8.08122 4.74208,0 8.5863,3.61808 8.5863,8.08122 z"
         transform="matrix(0.29197673,0,0,0.31022528,15.855787,962.18661)" /><path
         sodipodi:type="arc"
         style="fill:none;stroke:#ff0000;stroke-width:3.3226707;stroke-linecap:round;stroke-linejoin:round;stroke-miterlimit:4;stroke-opacity:1;stroke-dasharray:none"
         id="path3842-3-57"
         sodipodi:cx="176.27162"
         sodipodi:cy="141.20459"
         sodipodi:rx="8.586297"
         sodipodi:ry="8.0812206"
         d="m 184.85792,141.20459 c 0,4.46313 -3.84422,8.08122 -8.5863,8.08122 -4.74208,0 -8.5863,-3.61809 -8.5863,-8.08122 0,-4.46314 3.84422,-8.08122 8.5863,-8.08122 4.74208,0 8.5863,3.61808 8.5863,8.08122 z"
         transform="matrix(0.29197673,0,0,0.31022528,-35.169057,979.75197)" /><path
         sodipodi:type="arc"
         style="fill:none;stroke:#ff0000;stroke-width:3.3226707;stroke-linecap:round;stroke-linejoin:round;stroke-miterlimit:4;stroke-opacity:1;stroke-dasharray:none"
         id="path3842-3-2-6"
         sodipodi:cx="176.27162"
         sodipodi:cy="141.20459"
         sodipodi:rx="8.586297"
         sodipodi:ry="8.0812206"
         d="m 184.85792,141.20459 c 0,4.46313 -3.84422,8.08122 -8.5863,8.08122 -4.74208,0 -8.5863,-3.61809 -8.5863,-8.08122 0,-4.46314 3.84422,-8.08122 8.5863,-8.08122 4.74208,0 8.5863,3.61808 8.5863,8.08122 z"
         transform="matrix(0.29197673,0,0,0.31022528,15.855787,979.75197)" /><path
         sodipodi:type="arc"
         style="fill:none;stroke:#ff0000;stroke-width:1.41630256;stroke-linecap:round;stroke-linejoin:round;stroke-miterlimit:4;stroke-opacity:1;stroke-dasharray:none"
         id="path4406-85"
         sodipodi:cx="192.32143"
         sodipodi:cy="127.98718"
         sodipodi:rx="5.3571429"
         sodipodi:ry="4.375"
         d="m 197.67857,127.98718 c 0,2.41625 -2.39848,4.375 -5.35714,4.375 -2.95867,0 -5.35715,-1.95875 -5.35715,-4.375 0,-2.41624 2.39848,-4.375 5.35715,-4.375 2.95866,0 5.35714,1.95876 5.35714,4.375 z"
         transform="matrix(0.63806717,0,0,0.78130675,-81.722771,897.69974)" /><path
         sodipodi:type="arc"
         style="fill:none;stroke:#ff0000;stroke-width:1.41630256;stroke-linecap:round;stroke-linejoin:round;stroke-miterlimit:4;stroke-opacity:1;stroke-dasharray:none"
         id="path4406-8-4"
         sodipodi:cx="192.32143"
         sodipodi:cy="127.98718"
         sodipodi:rx="5.3571429"
         sodipodi:ry="4.375"
         d="m 197.67857,127.98718 c 0,2.41625 -2.39848,4.375 -5.35714,4.375 -2.95867,0 -5.35715,-1.95875 -5.35715,-4.375 0,-2.41624 2.39848,-4.375 5.35715,-4.375 2.95866,0 5.35714,1.95876 5.35714,4.375 z"
         transform="matrix(0.63806717,0,0,0.78130675,-81.724771,930.95874)" /></g></g><g
     style="stroke-width:1;stroke-miterlimit:4;stroke-dasharray:none"
     transform="translate(197.49641,-324.70473)"
     id="g4151"><g
       transform="translate(64.383339,-547.22302)"
       id="layer1"
       inkscape:label="Calque 1"
       style="stroke-width:1;stroke-miterlimit:4;stroke-dasharray:none"><g
         id="g5144"
         style="stroke-width:1;stroke-miterlimit:4;stroke-dasharray:none"><path
           sodipodi:type="arc"
           style="fill:none;stroke:#ff0000;stroke-width:3.3226707;stroke-linecap:round;stroke-linejoin:round;stroke-miterlimit:4;stroke-opacity:1;stroke-dasharray:none"
           id="path3842"
           sodipodi:cx="176.27162"
           sodipodi:cy="141.20459"
           sodipodi:rx="8.586297"
           sodipodi:ry="8.0812206"
           d="m 184.85792,141.20459 c 0,4.46313 -3.84422,8.08122 -8.5863,8.08122 -4.74208,0 -8.5863,-3.61809 -8.5863,-8.08122 0,-4.46314 3.84422,-8.08122 8.5863,-8.08122 4.74208,0 8.5863,3.61808 8.5863,8.08122 z"
           transform="matrix(0.29197673,0,0,0.31022528,-35.167587,961.95275)" /><path
           sodipodi:type="arc"
           style="fill:none;stroke:#ff0000;stroke-width:3.3226707;stroke-linecap:round;stroke-linejoin:round;stroke-miterlimit:4;stroke-opacity:1;stroke-dasharray:none"
           id="path3842-9"
           sodipodi:cx="176.27162"
           sodipodi:cy="141.20459"
           sodipodi:rx="8.586297"
           sodipodi:ry="8.0812206"
           d="m 184.85792,141.20459 c 0,4.46313 -3.84422,8.08122 -8.5863,8.08122 -4.74208,0 -8.5863,-3.61809 -8.5863,-8.08122 0,-4.46314 3.84422,-8.08122 8.5863,-8.08122 4.74208,0 8.5863,3.61808 8.5863,8.08122 z"
           transform="matrix(0.29197673,0,0,0.31022528,15.855787,962.18661)" /><path
           sodipodi:type="arc"
           style="fill:none;stroke:#ff0000;stroke-width:3.3226707;stroke-linecap:round;stroke-linejoin:round;stroke-miterlimit:4;stroke-opacity:1;stroke-dasharray:none"
           id="path3842-3"
           sodipodi:cx="176.27162"
           sodipodi:cy="141.20459"
           sodipodi:rx="8.586297"
           sodipodi:ry="8.0812206"
           d="m 184.85792,141.20459 c 0,4.46313 -3.84422,8.08122 -8.5863,8.08122 -4.74208,0 -8.5863,-3.61809 -8.5863,-8.08122 0,-4.46314 3.84422,-8.08122 8.5863,-8.08122 4.74208,0 8.5863,3.61808 8.5863,8.08122 z"
           transform="matrix(0.29197673,0,0,0.31022528,-35.169057,979.75197)" /><path
           sodipodi:type="arc"
           style="fill:none;stroke:#ff0000;stroke-width:3.3226707;stroke-linecap:round;stroke-linejoin:round;stroke-miterlimit:4;stroke-opacity:1;stroke-dasharray:none"
           id="path3842-3-2"
           sodipodi:cx="176.27162"
           sodipodi:cy="141.20459"
           sodipodi:rx="8.586297"
           sodipodi:ry="8.0812206"
           d="m 184.85792,141.20459 c 0,4.46313 -3.84422,8.08122 -8.5863,8.08122 -4.74208,0 -8.5863,-3.61809 -8.5863,-8.08122 0,-4.46314 3.84422,-8.08122 8.5863,-8.08122 4.74208,0 8.5863,3.61808 8.5863,8.08122 z"
           transform="matrix(0.29197673,0,0,0.31022528,15.855787,979.75197)" /><path
           sodipodi:type="arc"
           style="fill:none;stroke:#ff0000;stroke-width:1.41630256;stroke-linecap:round;stroke-linejoin:round;stroke-miterlimit:4;stroke-opacity:1;stroke-dasharray:none"
           id="path4406"
           sodipodi:cx="192.32143"
           sodipodi:cy="127.98718"
           sodipodi:rx="5.3571429"
           sodipodi:ry="4.375"
           d="m 197.67857,127.98718 c 0,2.41625 -2.39848,4.375 -5.35714,4.375 -2.95867,0 -5.35715,-1.95875 -5.35715,-4.375 0,-2.41624 2.39848,-4.375 5.35715,-4.375 2.95866,0 5.35714,1.95876 5.35714,4.375 z"
           transform="matrix(0.63806717,0,0,0.78130675,-81.722771,897.69974)" /><path
           sodipodi:type="arc"
           style="fill:none;stroke:#ff0000;stroke-width:1.41630256;stroke-linecap:round;stroke-linejoin:round;stroke-miterlimit:4;stroke-opacity:1;stroke-dasharray:none"
           id="path4406-8"
           sodipodi:cx="192.32143"
           sodipodi:cy="127.98718"
           sodipodi:rx="5.3571429"
           sodipodi:ry="4.375"
           d="m 197.67857,127.98718 c 0,2.41625 -2.39848,4.375 -5.35714,4.375 -2.95867,0 -5.35715,-1.95875 -5.35715,-4.375 0,-2.41624 2.39848,-4.375 5.35715,-4.375 2.95866,0 5.35714,1.95876 5.35714,4.375 z"
           transform="matrix(0.63806717,0,0,0.78130675,-81.724771,930.95874)" /></g></g></g></g><g
   id="g7450"
   transform="translate(674.12151,-429.23348)"><rect
     y="439.77008"
     x="22.225508"
     height="247.90569"
     width="247.90619"
     id="rect3779"
     style="fill:none;stroke:#ff0000;stroke-width:1;stroke-linecap:round;stroke-linejoin:round;stroke-miterlimit:4;stroke-opacity:1;stroke-dasharray:none" /><g
     transform="translate(103.94973,-448.47126)"
     id="layer1-8"
     inkscape:label="Calque 1"
     style="stroke-width:1;stroke-miterlimit:4;stroke-dasharray:none"><g
       id="g6699"><path
         sodipodi:type="arc"
         style="fill:none;stroke:#ff0000;stroke-width:3.3226707;stroke-linecap:round;stroke-linejoin:round;stroke-miterlimit:4;stroke-opacity:1;stroke-dasharray:none"
         id="path3842-30"
         sodipodi:cx="176.27162"
         sodipodi:cy="141.20459"
         sodipodi:rx="8.586297"
         sodipodi:ry="8.0812206"
         d="m 184.85792,141.20459 c 0,4.46313 -3.84422,8.08122 -8.5863,8.08122 -4.74208,0 -8.5863,-3.61809 -8.5863,-8.08122 0,-4.46314 3.84422,-8.08122 8.5863,-8.08122 4.74208,0 8.5863,3.61808 8.5863,8.08122 z"
         transform="matrix(0.29197673,0,0,0.31022528,-35.167587,961.95275)" /><path
         sodipodi:type="arc"
         style="fill:none;stroke:#ff0000;stroke-width:3.3226707;stroke-linecap:round;stroke-linejoin:round;stroke-miterlimit:4;stroke-opacity:1;stroke-dasharray:none"
         id="path3842-9-4"
         sodipodi:cx="176.27162"
         sodipodi:cy="141.20459"
         sodipodi:rx="8.586297"
         sodipodi:ry="8.0812206"
         d="m 184.85792,141.20459 c 0,4.46313 -3.84422,8.08122 -8.5863,8.08122 -4.74208,0 -8.5863,-3.61809 -8.5863,-8.08122 0,-4.46314 3.84422,-8.08122 8.5863,-8.08122 4.74208,0 8.5863,3.61808 8.5863,8.08122 z"
         transform="matrix(0.29197673,0,0,0.31022528,15.855787,962.18661)" /><path
         sodipodi:type="arc"
         style="fill:none;stroke:#ff0000;stroke-width:3.3226707;stroke-linecap:round;stroke-linejoin:round;stroke-miterlimit:4;stroke-opacity:1;stroke-dasharray:none"
         id="path3842-3-1"
         sodipodi:cx="176.27162"
         sodipodi:cy="141.20459"
         sodipodi:rx="8.586297"
         sodipodi:ry="8.0812206"
         d="m 184.85792,141.20459 c 0,4.46313 -3.84422,8.08122 -8.5863,8.08122 -4.74208,0 -8.5863,-3.61809 -8.5863,-8.08122 0,-4.46314 3.84422,-8.08122 8.5863,-8.08122 4.74208,0 8.5863,3.61808 8.5863,8.08122 z"
         transform="matrix(0.29197673,0,0,0.31022528,-35.169057,979.75197)" /><path
         sodipodi:type="arc"
         style="fill:none;stroke:#ff0000;stroke-width:3.3226707;stroke-linecap:round;stroke-linejoin:round;stroke-miterlimit:4;stroke-opacity:1;stroke-dasharray:none"
         id="path3842-3-2-7"
         sodipodi:cx="176.27162"
         sodipodi:cy="141.20459"
         sodipodi:rx="8.586297"
         sodipodi:ry="8.0812206"
         d="m 184.85792,141.20459 c 0,4.46313 -3.84422,8.08122 -8.5863,8.08122 -4.74208,0 -8.5863,-3.61809 -8.5863,-8.08122 0,-4.46314 3.84422,-8.08122 8.5863,-8.08122 4.74208,0 8.5863,3.61808 8.5863,8.08122 z"
         transform="matrix(0.29197673,0,0,0.31022528,15.855787,979.75197)" /><path
         sodipodi:type="arc"
         style="fill:none;stroke:#ff0000;stroke-width:1.41630256;stroke-linecap:round;stroke-linejoin:round;stroke-miterlimit:4;stroke-opacity:1;stroke-dasharray:none"
         id="path4406-9"
         sodipodi:cx="192.32143"
         sodipodi:cy="127.98718"
         sodipodi:rx="5.3571429"
         sodipodi:ry="4.375"
         d="m 197.67857,127.98718 c 0,2.41625 -2.39848,4.375 -5.35714,4.375 -2.95867,0 -5.35715,-1.95875 -5.35715,-4.375 0,-2.41624 2.39848,-4.375 5.35715,-4.375 2.95866,0 5.35714,1.95876 5.35714,4.375 z"
         transform="matrix(0.63806717,0,0,0.78130675,-81.722771,897.69974)" /><path
         sodipodi:type="arc"
         style="fill:none;stroke:#ff0000;stroke-width:1.41630256;stroke-linecap:round;stroke-linejoin:round;stroke-miterlimit:4;stroke-opacity:1;stroke-dasharray:none"
         id="path4406-8-5"
         sodipodi:cx="192.32143"
         sodipodi:cy="127.98718"
         sodipodi:rx="5.3571429"
         sodipodi:ry="4.375"
         d="m 197.67857,127.98718 c 0,2.41625 -2.39848,4.375 -5.35714,4.375 -2.95867,0 -5.35715,-1.95875 -5.35715,-4.375 0,-2.41624 2.39848,-4.375 5.35715,-4.375 2.95866,0 5.35714,1.95876 5.35714,4.375 z"
         transform="matrix(0.63806717,0,0,0.78130675,-81.724771,930.95874)" /></g></g></g><g
   transform="translate(401.78458,-789.18995)"
   id="layer1-1"
   inkscape:label="Calque 1"
   style="stroke-width:1;stroke-miterlimit:4;stroke-dasharray:none"><path
     transform="matrix(1.1369529,0,0,1.1736289,-103.1829,708.13641)"
     d="m 294.28572,186.6479 c 0,48.91665 -40.93397,88.57143 -91.42857,88.57143 -50.49461,0 -91.42858,-39.65478 -91.42858,-88.57143 0,-48.91664 40.93397,-88.571423 91.42858,-88.571423 50.4946,0 91.42857,39.654783 91.42857,88.571423 z"
     sodipodi:ry="88.571426"
     sodipodi:rx="91.428574"
     sodipodi:cy="186.6479"
     sodipodi:cx="202.85715"
     id="path3757-4"
     style="fill:none;stroke:#ff0000;stroke-width:0.86569196;stroke-linecap:round;stroke-linejoin:round;stroke-miterlimit:4;stroke-opacity:1;stroke-dasharray:none"
     sodipodi:type="arc" /><path
     transform="matrix(0.94424906,0,0,0.97470875,-64.407069,745.00851)"
     d="m 294.28572,186.6479 c 0,48.91665 -40.93397,88.57143 -91.42857,88.57143 -50.49461,0 -91.42858,-39.65478 -91.42858,-88.57143 0,-48.91664 40.93397,-88.571423 91.42858,-88.571423 50.4946,0 91.42857,39.654783 91.42857,88.571423 z"
     sodipodi:ry="88.571426"
     sodipodi:rx="91.428574"
     sodipodi:cy="186.6479"
     sodipodi:cx="202.85715"
     id="path3757-5-0"
     style="fill:none;stroke:#ff0000;stroke-width:1.04236376;stroke-linecap:round;stroke-linejoin:round;stroke-miterlimit:4;stroke-opacity:1;stroke-dasharray:none"
     sodipodi:type="arc" /><rect
     y="800.85071"
     x="3.6058071"
     height="247.90569"
     width="247.90619"
     id="rect3779-6"
     style="fill:none;stroke:#ff0000;stroke-width:1;stroke-linecap:round;stroke-linejoin:round;stroke-miterlimit:4;stroke-opacity:1;stroke-dasharray:none" /></g><g
   transform="translate(144.99264,-790.0816)"
   id="layer1-5"
   inkscape:label="Calque 1"
   style="stroke-width:1;stroke-miterlimit:4;stroke-dasharray:none"><path
     transform="matrix(1.1369529,0,0,1.1736289,-103.1829,708.13641)"
     d="m 294.28572,186.6479 c 0,48.91665 -40.93397,88.57143 -91.42857,88.57143 -50.49461,0 -91.42858,-39.65478 -91.42858,-88.57143 0,-48.91664 40.93397,-88.571423 91.42858,-88.571423 50.4946,0 91.42857,39.654783 91.42857,88.571423 z"
     sodipodi:ry="88.571426"
     sodipodi:rx="91.428574"
     sodipodi:cy="186.6479"
     sodipodi:cx="202.85715"
     id="path3757"
     style="fill:none;stroke:#ff0000;stroke-width:0.86569196;stroke-linecap:round;stroke-linejoin:round;stroke-miterlimit:4;stroke-opacity:1;stroke-dasharray:none"
     sodipodi:type="arc" /><path
     transform="matrix(0.94424906,0,0,0.97470875,-64.407069,745.00851)"
     d="m 294.28572,186.6479 c 0,48.91665 -40.93397,88.57143 -91.42857,88.57143 -50.49461,0 -91.42858,-39.65478 -91.42858,-88.57143 0,-48.91664 40.93397,-88.571423 91.42858,-88.571423 50.4946,0 91.42857,39.654783 91.42857,88.571423 z"
     sodipodi:ry="88.571426"
     sodipodi:rx="91.428574"
     sodipodi:cy="186.6479"
     sodipodi:cx="202.85715"
     id="path3757-5"
     style="fill:none;stroke:#ff0000;stroke-width:1.04236376;stroke-linecap:round;stroke-linejoin:round;stroke-miterlimit:4;stroke-opacity:1;stroke-dasharray:none"
     sodipodi:type="arc" /><rect
     y="800.85071"
     x="3.6058071"
     height="247.90569"
     width="247.90619"
     id="rect3779-0"
     style="fill:none;stroke:#ff0000;stroke-width:1;stroke-linecap:round;stroke-linejoin:round;stroke-miterlimit:4;stroke-opacity:1;stroke-dasharray:none" /></g><g
   id="g10609"
   transform="matrix(-1,0,0,-1,666.24588,1220.1059)"><g
     id="g8387"
     transform="translate(-42.505025,-161.53525)"
     style="stroke-width:1;stroke-miterlimit:4;stroke-dasharray:none"><path
       sodipodi:type="arc"
       style="fill:none;stroke:#ff0000;stroke-width:1.64129579;stroke-linecap:round;stroke-linejoin:round;stroke-miterlimit:4;stroke-opacity:1;stroke-dasharray:none"
       id="path3757-1"
       sodipodi:cx="202.85715"
       sodipodi:cy="186.6479"
       sodipodi:rx="91.428574"
       sodipodi:ry="88.571426"
       d="m 294.28572,186.6479 c 0,48.91665 -40.93397,88.57143 -91.42857,88.57143 -50.49461,0 -91.42858,-39.65478 -91.42858,-88.57143 0,-48.91664 40.93397,-88.571423 91.42858,-88.571423 50.4946,0 91.42857,39.654783 91.42857,88.571423 z"
       transform="matrix(0.5996792,0,0,0.61902374,5.8069105,811.6523)" /><path
       sodipodi:type="arc"
       style="fill:none;stroke:#ff0000;stroke-width:2.03591347;stroke-linecap:round;stroke-linejoin:round;stroke-miterlimit:4;stroke-opacity:1;stroke-dasharray:none"
       id="path3757-5-9"
       sodipodi:cx="202.85715"
       sodipodi:cy="186.6479"
       sodipodi:rx="91.428574"
       sodipodi:ry="88.571426"
       d="m 294.28572,186.6479 c 0,48.91665 -40.93397,88.57143 -91.42857,88.57143 -50.49461,0 -91.42858,-39.65478 -91.42858,-88.57143 0,-48.91664 40.93397,-88.571423 91.42858,-88.571423 50.4946,0 91.42857,39.654783 91.42857,88.571423 z"
       transform="matrix(0.48344439,0,0,0.49903939,29.070452,833.7912)" /></g><g
     transform="translate(108.86916,-165.01569)"
     id="layer1-80"
     inkscape:label="Calque 1"
     style="stroke-width:1;stroke-miterlimit:4;stroke-dasharray:none"><g
       id="g8696"
       transform="translate(-32,3.4804425)"><path
         sodipodi:type="arc"
         style="fill:none;stroke:#ff0000;stroke-width:1.64129579;stroke-linecap:round;stroke-linejoin:round;stroke-miterlimit:4;stroke-opacity:1;stroke-dasharray:none"
         id="path3757-0"
         sodipodi:cx="202.85715"
         sodipodi:cy="186.6479"
         sodipodi:rx="91.428574"
         sodipodi:ry="88.571426"
         d="m 294.28572,186.6479 c 0,48.91665 -40.93397,88.57143 -91.42857,88.57143 -50.49461,0 -91.42858,-39.65478 -91.42858,-88.57143 0,-48.91664 40.93397,-88.571423 91.42858,-88.571423 50.4946,0 91.42857,39.654783 91.42857,88.571423 z"
         transform="matrix(0.5996792,0,0,0.61902374,5.8069105,811.6523)" /><path
         sodipodi:type="arc"
         style="fill:none;stroke:#ff0000;stroke-width:2.03591347;stroke-linecap:round;stroke-linejoin:round;stroke-miterlimit:4;stroke-opacity:1;stroke-dasharray:none"
         id="path3757-5-5"
         sodipodi:cx="202.85715"
         sodipodi:cy="186.6479"
         sodipodi:rx="91.428574"
         sodipodi:ry="88.571426"
         d="m 294.28572,186.6479 c 0,48.91665 -40.93397,88.57143 -91.42857,88.57143 -50.49461,0 -91.42858,-39.65478 -91.42858,-88.57143 0,-48.91664 40.93397,-88.571423 91.42858,-88.571423 50.4946,0 91.42857,39.654783 91.42857,88.571423 z"
         transform="matrix(0.48344439,0,0,0.49903939,29.070452,833.7912)" /></g></g><g
     id="g9623"
     transform="translate(196.24334,-161.53525)"
     style="stroke-width:1;stroke-miterlimit:4;stroke-dasharray:none"><path
       sodipodi:type="arc"
       style="fill:none;stroke:#ff0000;stroke-width:1.64129579;stroke-linecap:round;stroke-linejoin:round;stroke-miterlimit:4;stroke-opacity:1;stroke-dasharray:none"
       id="path3757-6"
       sodipodi:cx="202.85715"
       sodipodi:cy="186.6479"
       sodipodi:rx="91.428574"
       sodipodi:ry="88.571426"
       d="m 294.28572,186.6479 c 0,48.91665 -40.93397,88.57143 -91.42857,88.57143 -50.49461,0 -91.42858,-39.65478 -91.42858,-88.57143 0,-48.91664 40.93397,-88.571423 91.42858,-88.571423 50.4946,0 91.42857,39.654783 91.42857,88.571423 z"
       transform="matrix(0.5996792,0,0,0.61902374,5.8069105,811.6523)" /><path
       sodipodi:type="arc"
       style="fill:none;stroke:#ff0000;stroke-width:2.03591347;stroke-linecap:round;stroke-linejoin:round;stroke-miterlimit:4;stroke-opacity:1;stroke-dasharray:none"
       id="path3757-5-09"
       sodipodi:cx="202.85715"
       sodipodi:cy="186.6479"
       sodipodi:rx="91.428574"
       sodipodi:ry="88.571426"
       d="m 294.28572,186.6479 c 0,48.91665 -40.93397,88.57143 -91.42857,88.57143 -50.49461,0 -91.42858,-39.65478 -91.42858,-88.57143 0,-48.91664 40.93397,-88.571423 91.42858,-88.571423 50.4946,0 91.42857,39.654783 91.42857,88.571423 z"
       transform="matrix(0.48344439,0,0,0.49903939,29.070452,833.7912)" /></g><g
     id="g10241"
     transform="translate(315.61757,-161.53525)"
     style="stroke-width:1;stroke-miterlimit:4;stroke-dasharray:none"><path
       sodipodi:type="arc"
       style="fill:none;stroke:#ff0000;stroke-width:1.64129579;stroke-linecap:round;stroke-linejoin:round;stroke-miterlimit:4;stroke-opacity:1;stroke-dasharray:none"
       id="path3757-8"
       sodipodi:cx="202.85715"
       sodipodi:cy="186.6479"
       sodipodi:rx="91.428574"
       sodipodi:ry="88.571426"
       d="m 294.28572,186.6479 c 0,48.91665 -40.93397,88.57143 -91.42857,88.57143 -50.49461,0 -91.42858,-39.65478 -91.42858,-88.57143 0,-48.91664 40.93397,-88.571423 91.42858,-88.571423 50.4946,0 91.42857,39.654783 91.42857,88.571423 z"
       transform="matrix(0.5996792,0,0,0.61902374,5.8069105,811.6523)" /><path
       sodipodi:type="arc"
       style="fill:none;stroke:#ff0000;stroke-width:2.03591347;stroke-linecap:round;stroke-linejoin:round;stroke-miterlimit:4;stroke-opacity:1;stroke-dasharray:none"
       id="path3757-5-7"
       sodipodi:cx="202.85715"
       sodipodi:cy="186.6479"
       sodipodi:rx="91.428574"
       sodipodi:ry="88.571426"
       d="m 294.28572,186.6479 c 0,48.91665 -40.93397,88.57143 -91.42857,88.57143 -50.49461,0 -91.42858,-39.65478 -91.42858,-88.57143 0,-48.91664 40.93397,-88.571423 91.42858,-88.571423 50.4946,0 91.42857,39.654783 91.42857,88.571423 z"
       transform="matrix(0.48344439,0,0,0.49903939,29.070452,833.7912)" /></g></g><g
   id="g10624"
   transform="matrix(-1,0,0,-1,670.7263,1219.3498)"><g
     transform="translate(-40.505032,-40.879866)"
     id="g9005"
     style="stroke-width:1;stroke-miterlimit:4;stroke-dasharray:none"><path
       transform="matrix(0.5996792,0,0,0.61902374,5.8069105,811.6523)"
       d="m 294.28572,186.6479 c 0,48.91665 -40.93397,88.57143 -91.42857,88.57143 -50.49461,0 -91.42858,-39.65478 -91.42858,-88.57143 0,-48.91664 40.93397,-88.571423 91.42858,-88.571423 50.4946,0 91.42857,39.654783 91.42857,88.571423 z"
       sodipodi:ry="88.571426"
       sodipodi:rx="91.428574"
       sodipodi:cy="186.6479"
       sodipodi:cx="202.85715"
       id="path3757-2"
       style="fill:none;stroke:#ff0000;stroke-width:1.64129579;stroke-linecap:round;stroke-linejoin:round;stroke-miterlimit:4;stroke-opacity:1;stroke-dasharray:none"
       sodipodi:type="arc" /><path
       transform="matrix(0.48344439,0,0,0.49903939,29.070452,833.7912)"
       d="m 294.28572,186.6479 c 0,48.91665 -40.93397,88.57143 -91.42857,88.57143 -50.49461,0 -91.42858,-39.65478 -91.42858,-88.57143 0,-48.91664 40.93397,-88.571423 91.42858,-88.571423 50.4946,0 91.42857,39.654783 91.42857,88.571423 z"
       sodipodi:ry="88.571426"
       sodipodi:rx="91.428574"
       sodipodi:cy="186.6479"
       sodipodi:cx="202.85715"
       id="path3757-5-3"
       style="fill:none;stroke:#ff0000;stroke-width:2.03591347;stroke-linecap:round;stroke-linejoin:round;stroke-miterlimit:4;stroke-opacity:1;stroke-dasharray:none"
       sodipodi:type="arc" /></g><g
     style="stroke-width:1;stroke-miterlimit:4;stroke-dasharray:none"
     inkscape:label="Calque 1"
     id="layer1-58"
     transform="translate(117.32725,-162.6954)"><g
       transform="translate(-36.804437,121.81553)"
       id="g9314"><path
         transform="matrix(0.5996792,0,0,0.61902374,5.8069105,811.6523)"
         d="m 294.28572,186.6479 c 0,48.91665 -40.93397,88.57143 -91.42857,88.57143 -50.49461,0 -91.42858,-39.65478 -91.42858,-88.57143 0,-48.91664 40.93397,-88.571423 91.42858,-88.571423 50.4946,0 91.42857,39.654783 91.42857,88.571423 z"
         sodipodi:ry="88.571426"
         sodipodi:rx="91.428574"
         sodipodi:cy="186.6479"
         sodipodi:cx="202.85715"
         id="path3757-05"
         style="fill:none;stroke:#ff0000;stroke-width:1.64129579;stroke-linecap:round;stroke-linejoin:round;stroke-miterlimit:4;stroke-opacity:1;stroke-dasharray:none"
         sodipodi:type="arc" /><path
         transform="matrix(0.48344439,0,0,0.49903939,29.070452,833.7912)"
         d="m 294.28572,186.6479 c 0,48.91665 -40.93397,88.57143 -91.42857,88.57143 -50.49461,0 -91.42858,-39.65478 -91.42858,-88.57143 0,-48.91664 40.93397,-88.571423 91.42858,-88.571423 50.4946,0 91.42857,39.654783 91.42857,88.571423 z"
         sodipodi:ry="88.571426"
         sodipodi:rx="91.428574"
         sodipodi:cy="186.6479"
         sodipodi:cx="202.85715"
         id="path3757-5-53"
         style="fill:none;stroke:#ff0000;stroke-width:2.03591347;stroke-linecap:round;stroke-linejoin:round;stroke-miterlimit:4;stroke-opacity:1;stroke-dasharray:none"
         sodipodi:type="arc" /></g></g><g
     transform="translate(201.55062,-40.879866)"
     id="g9932"
     style="stroke-width:1;stroke-miterlimit:4;stroke-dasharray:none"><path
       transform="matrix(0.5996792,0,0,0.61902374,5.8069105,811.6523)"
       d="m 294.28572,186.6479 c 0,48.91665 -40.93397,88.57143 -91.42857,88.57143 -50.49461,0 -91.42858,-39.65478 -91.42858,-88.57143 0,-48.91664 40.93397,-88.571423 91.42858,-88.571423 50.4946,0 91.42857,39.654783 91.42857,88.571423 z"
       sodipodi:ry="88.571426"
       sodipodi:rx="91.428574"
       sodipodi:cy="186.6479"
       sodipodi:cx="202.85715"
       id="path3757-26"
       style="fill:none;stroke:#ff0000;stroke-width:1.64129579;stroke-linecap:round;stroke-linejoin:round;stroke-miterlimit:4;stroke-opacity:1;stroke-dasharray:none"
       sodipodi:type="arc" /><path
       transform="matrix(0.48344439,0,0,0.49903939,29.070452,833.7912)"
       d="m 294.28572,186.6479 c 0,48.91665 -40.93397,88.57143 -91.42857,88.57143 -50.49461,0 -91.42858,-39.65478 -91.42858,-88.57143 0,-48.91664 40.93397,-88.571423 91.42858,-88.571423 50.4946,0 91.42857,39.654783 91.42857,88.571423 z"
       sodipodi:ry="88.571426"
       sodipodi:rx="91.428574"
       sodipodi:cy="186.6479"
       sodipodi:cx="202.85715"
       id="path3757-5-8"
       style="fill:none;stroke:#ff0000;stroke-width:2.03591347;stroke-linecap:round;stroke-linejoin:round;stroke-miterlimit:4;stroke-opacity:1;stroke-dasharray:none"
       sodipodi:type="arc" /></g><g
     transform="translate(226.28618,-130.21125)"
     id="layer1-48"
     inkscape:label="Calque 1"
     style="stroke-width:1;stroke-miterlimit:4;stroke-dasharray:none"><g
       id="g10550"
       transform="translate(96.292276,89.331389)"><path
         sodipodi:type="arc"
         style="fill:none;stroke:#ff0000;stroke-width:1.64129579;stroke-linecap:round;stroke-linejoin:round;stroke-miterlimit:4;stroke-opacity:1;stroke-dasharray:none"
         id="path3757-3"
         sodipodi:cx="202.85715"
         sodipodi:cy="186.6479"
         sodipodi:rx="91.428574"
         sodipodi:ry="88.571426"
         d="m 294.28572,186.6479 c 0,48.91665 -40.93397,88.57143 -91.42857,88.57143 -50.49461,0 -91.42858,-39.65478 -91.42858,-88.57143 0,-48.91664 40.93397,-88.571423 91.42858,-88.571423 50.4946,0 91.42857,39.654783 91.42857,88.571423 z"
         transform="matrix(0.5996792,0,0,0.61902374,5.8069105,811.6523)" /><path
         sodipodi:type="arc"
         style="fill:none;stroke:#ff0000;stroke-width:2.03591347;stroke-linecap:round;stroke-linejoin:round;stroke-miterlimit:4;stroke-opacity:1;stroke-dasharray:none"
         id="path3757-5-1"
         sodipodi:cx="202.85715"
         sodipodi:cy="186.6479"
         sodipodi:rx="91.428574"
         sodipodi:ry="88.571426"
         d="m 294.28572,186.6479 c 0,48.91665 -40.93397,88.57143 -91.42857,88.57143 -50.49461,0 -91.42858,-39.65478 -91.42858,-88.57143 0,-48.91664 40.93397,-88.571423 91.42858,-88.571423 50.4946,0 91.42857,39.654783 91.42857,88.571423 z"
         transform="matrix(0.48344439,0,0,0.49903939,29.070452,833.7912)" /></g></g></g><rect
   style="fill:none;stroke:#ff0000;stroke-width:0.79606396;stroke-miterlimit:4;stroke-opacity:1;stroke-dasharray:none"
   id="rect10676"
   width="671.01672"
   height="612.91754"
   x="4.6405592"
   y="5.6917896" /></svg>