<?xml version="1.0" encoding="UTF-8" standalone="no"?>
<!-- Generator: Adobe Illustrator 15.1.0, SVG Export Plug-In . SVG Version: 6.00 Build 0)  -->

<svg
   xmlns:dc="http://purl.org/dc/elements/1.1/"
   xmlns:cc="http://creativecommons.org/ns#"
   xmlns:rdf="http://www.w3.org/1999/02/22-rdf-syntax-ns#"
   xmlns:svg="http://www.w3.org/2000/svg"
   xmlns="http://www.w3.org/2000/svg"
   xmlns:sodipodi="http://sodipodi.sourceforge.net/DTD/sodipodi-0.dtd"
   xmlns:inkscape="http://www.inkscape.org/namespaces/inkscape"
   version="1.1"
   x="0px"
   y="0px"
   width="1475.4548"
   height="1129.2987"
   viewBox="0 0 1475.4549 1129.2987"
   enable-background="new 0 0 2157.875 1105.512"
   xml:space="preserve"
   id="svg2"
   inkscape:version="0.48.5 r10040"
   sodipodi:docname="V0.3 - Assemblage.svg"
   inkscape:export-filename="/Users/tatiana/indep/faclab/documathon/object/box/V0.3/V0.3 - Assemblage.png"
   inkscape:export-xdpi="90"
   inkscape:export-ydpi="90"><metadata
     id="metadata267"><rdf:RDF><cc:Work
         rdf:about=""><dc:format>image/svg+xml</dc:format><dc:type
           rdf:resource="http://purl.org/dc/dcmitype/StillImage" /><dc:title /></cc:Work></rdf:RDF></metadata><defs
     id="defs265"><sodipodi:namedview
       id="base"
       pagecolor="#ffffff"
       bordercolor="#666666"
       borderopacity="1.0"
       inkscape:pageopacity="0.0"
       inkscape:pageshadow="2"
       inkscape:document-units="mm"
       fit-margin-top="0"
       inkscape:current-layer="layer1"
       showgrid="false"
       fit-margin-left="0"
       fit-margin-right="0"
       fit-margin-bottom="0"
       inkscape:window-maximized="1"
       units="mm" /></defs><sodipodi:namedview
     pagecolor="#ffffff"
     bordercolor="#666666"
     borderopacity="1"
     objecttolerance="10"
     gridtolerance="10"
     guidetolerance="10"
     inkscape:pageopacity="0"
     inkscape:pageshadow="2"
     inkscape:window-width="1381"
     inkscape:window-height="855"
     id="namedview263"
     showgrid="false"
     inkscape:zoom="0.43097953"
     inkscape:cx="884.93929"
     inkscape:cy="513.3787"
     inkscape:window-x="58"
     inkscape:window-y="0"
     inkscape:window-maximized="0"
     inkscape:current-layer="svg2"
     units="mm"
     fit-margin-top="0"
     fit-margin-left="0"
     fit-margin-right="0"
     fit-margin-bottom="0" /><path
     style="fill:none;stroke:#ff0000;stroke-width:1;stroke-miterlimit:4;stroke-opacity:1;stroke-dasharray:none"
     inkscape:connector-curvature="0"
     d="m 210.69438,211.93574 h 36.832 v 10.63 h 36.301 v -10.63 h 37.00996 v 10.63 h 36.301 v -10.63 h 37.008 v 10.63 h 36.301 v -10.63 h 37.01 v 10.63 h 36.301 v -10.63 h 37.01 v 10.63 h 36.301 v -10.63 h 37.008 v 10.63 h 36.301 v -10.63 h 37.01 v 10.63 h 36.301 v -10.63 h 37.00996 v 10.63 h 36.299 v -10.63 h 37.01 v 10.63 h 36.301 v -10.63 h 37.01 v 10.63 h 36.301 v -10.63 h 37.008 v 10.63 h 36.301 v -10.63 h 37.01 v 10.63 h 36.301 v -10.63 h 37.01 v 10.63 h 36.301 v -10.63 h 37.008 v 10.63 h 36.301 v -10.63 h 36.832 v 37.475 h -10.629 v 36.944 h 10.629 v 37.652 h -10.629 v 36.943 h 10.629 v 37.652 h -10.629 v 36.944 h 10.629 v 37.652 h -10.629 v 36.944 h 10.629 v 37.652 h -10.629 v 36.943 h 10.629 v 37.652 h -10.629 v 36.943 h 10.629 v 37.652 h -10.629 v 36.943 h 10.629 v 37.652 h -10.629 v 36.944 h 10.629 v 37.652 h -10.629 v 36.943 h 10.629 v 37.475 h -36.832 v -10.63 h -36.301 v 10.63 h -37.008 v -10.63 h -36.301 v 10.63 h -37.01 v -10.63 h -36.301 v 10.63 h -37.01 v -10.63 h -36.301 v 10.63 h -37.008 v -10.63 h -36.301 v 10.63 h -37.01 v -10.63 h -36.301 v 10.63 h -37.01 v -10.63 h -36.299 v 10.63 h -37.00996 v -10.63 h -36.301 v 10.63 h -37.01 v -10.63 h -36.301 v 10.63 h -37.008 v -10.63 h -36.301 v 10.63 h -37.01 v -10.63 h -36.301 v 10.63 h -37.01 v -10.63 h -36.301 v 10.63 h -37.008 v -10.63 h -36.301 v 10.63 h -37.00996 v -10.63 h -36.301 v 10.63 h -36.832 v -37.475 h 10.631 v -36.943 h -10.631 v -37.652 h 10.631 v -36.944 h -10.631 v -37.652 h 10.631 v -36.943 h -10.631 v -37.652 h 10.631 v -36.943 h -10.631 v -37.652 h 10.631 v -36.943 h -10.631 v -37.652 h 10.631 v -36.944 h -10.631 v -37.652 h 10.631 v -36.944 h -10.631 v -37.652 h 10.631 v -36.943 h -10.631 v -37.652 h 10.631 v -36.944 h -10.631 v -37.475 l 0,0 z"
     id="top" /><path
     style="fill:none;stroke:#ff0000;stroke-width:1.0169785;stroke-miterlimit:4;stroke-opacity:1;stroke-dasharray:none"
     inkscape:connector-curvature="0"
     d="m 213.98427,956.54944 h 36.4784 v -10.9942 h 37.0094 v 10.9942 h 36.29837 v -10.9942 h 37.0094 v 10.9942 h 36.3005 v -10.9942 h 37.0094 v 10.9942 h 36.3004 v -10.9942 h 37.0074 v 10.9942 h 36.3004 v -10.9942 h 37.0094 v 10.9942 h 36.3005 v -10.9942 h 37.0094 v 10.9942 h 36.3004 v -10.9942 h 37.0074 v 10.9942 h 36.30036 v -10.9942 h 37.0094 v 10.9942 h 36.3004 v -10.9942 h 37.0094 v 10.9942 h 36.2985 v -10.9942 h 37.0094 v 10.9942 h 36.3004 v -10.9942 h 37.0094 v 10.9942 h 36.3004 v -10.9942 h 37.0074 v 10.9942 h 36.3005 v -10.9942 h 37.0094 v 10.9942 h 36.3004 v -10.9942 h 37.0094 v 10.9942 h 36.4764 v 53.93256 h -10.6288 v 53.3814 h 10.6288 v 53.9326 h -36.4764 v 10.9942 h -37.0094 V 1117.796 H 1167.18 v 10.9942 h -37.0094 v -10.9942 h -36.3005 v 10.9942 h -37.0074 v -10.9942 h -36.3004 v 10.9942 h -37.0094 v -10.9942 h -36.3004 v 10.9942 h -37.0094 v -10.9942 h -36.2985 v 10.9942 h -37.0094 v -10.9942 h -36.3004 v 10.9942 h -37.0094 v -10.9942 h -36.30036 v 10.9942 h -37.0074 v -10.9942 h -36.3004 v 10.9942 h -37.0094 v -10.9942 h -36.3005 v 10.9942 h -37.0094 v -10.9942 h -36.3004 v 10.9942 h -37.0074 v -10.9942 h -36.3004 v 10.9942 h -37.0094 v -10.9942 h -36.3005 v 10.9942 h -37.0094 v -10.9942 h -36.29837 v 10.9942 h -37.0094 v -10.9942 h -36.4784 v -53.9326 h 10.6308 v -53.3814 h -10.6308 v -53.93256 z"
     id="font" /><path
     style="fill:none;stroke:#ff0000;stroke-opacity:1"
     d="m 1233.3024,0.5 0,11 36.5,0 0,53.937497 -10.6562,0 0,53.375003 10.6562,0 0,53.9375 -36.5,0 0,11 -37,0 0,-11 -36.3125,0 0,11 -37,0 0,-11 -36.2812,0 0,11 -37.0313,0 0,-11 -36.2812,0 0,11 -37.0313,0 0,-11 -36.2812,0 0,11 -37,0 0,-11 -36.3125,0 0,11 -37,0 0,-11 -36.3125,0 0,11 -37,0 0,-11 -36.31246,0 0,11 -37,0 0,-11 -36.3125,0 0,11 -37,0 0,-11 -36.3125,0 0,11 -37,0 0,-11 -36.3125,0 0,11 -37,0 0,-11 -36.2813,0 0,11 -37.0312,0 0,-11 -36.2813,0 0,11 -37.0312,0 0,-11 -36.28126,0 0,11 -37,0 0,-11 -36.5,0 0,-53.9375 10.625,0 0,-53.375003 -10.625,0 0,-53.937497 36.5,0 0,-11 37,0 0,11 36.28126,0 0,-11 37.0312,0 0,11 36.2813,0 0,-11 37.0312,0 0,11 36.2813,0 0,-11 37,0 0,11 36.3125,0 0,-11 37,0 0,11 36.3125,0 0,-11 37,0 0,11 36.2187,0 0,38.4375 146.74996,0 0,-49.4375 36.9688,0 0,11 36.3125,0 0,-11 37,0 0,11 36.2812,0 0,-11 37.0313,0 0,11 36.2812,0 0,-11 37.0313,0 0,11 36.2812,0 0,-11 37,0 0,11 36.3125,0 0,-11 37,0 z"
     id="back"
     inkscape:connector-curvature="0" /><path
     style="fill:none;stroke:#ff0000;stroke-opacity:1"
     inkscape:connector-curvature="0"
     d="m 1157.0019,120.92727 h -55.7879 v 17.125 l 8.2289,5.65001 h 39.5841 l 7.9759,-5.65001 v -17.125 z"
     connector-curvature="0"
     id="polygon204" /><g
     id="g3061"
     transform="matrix(0,-1,-1,0,2404.5374,932.92982)"><path
       id="right_side"
       d="m 19.831021,940.58522 h 26.490365 v -10.99421 h 37.651098 v 10.99421 H 120.9156 v -10.99421 h 37.6511 v 10.99421 h 36.94211 v -10.99421 h 37.6511 v 10.99421 h 36.94312 v -10.99421 h 37.6511 v 10.99421 h 36.94211 v -10.99421 h 37.6511 v 10.99421 h 36.94311 v -10.99421 h 37.6511 v 10.99421 h 36.94212 v -10.99421 h 37.6511 v 10.99421 h 36.94211 v -10.99421 h 37.6511 v 10.99421 h 36.94311 v -10.99421 h 37.6511 v 10.99421 h 26.48937 v 53.56546 h 10.62974 v 54.11562 h -10.62974 v 53.5655 h -26.48937 v 10.9942 h -37.6511 v -10.9942 h -36.94311 v 10.9942 h -37.6511 v -10.9942 h -36.94211 v 10.9942 h -37.6511 v -10.9942 h -36.94212 v 10.9942 h -37.6501 v -10.9942 h -36.94311 v 10.9942 h -37.6511 v -10.9942 h -36.94211 v 10.9942 h -37.6511 v -10.9942 h -36.94312 v 10.9942 h -37.6511 v -10.9942 H 158.5677 v 10.9942 h -37.6511 v -10.9942 H 83.972484 v 10.9942 H 46.320386 v -10.9942 H 19.831021 v -53.5655 H 9.2012751 V 994.15068 H 19.831021 v -53.56546 z"
       inkscape:connector-curvature="0"
       style="fill:none;stroke:#ff0000;stroke-width:1.01697457;stroke-miterlimit:4;stroke-opacity:1;stroke-dasharray:none" /></g><g
     id="g3057"
     transform="matrix(0,1,1,0,-929.08253,-511.12287)"><path
       id="left_side"
       d="m 740.12202,940.58522 h 26.49037 v -10.99421 h 37.6511 v 10.99421 h 36.94211 v -10.99421 h 37.6511 v 10.99421 h 36.94311 v -10.99421 h 37.6511 v 10.99421 h 36.94212 v -10.99421 h 37.65107 v 10.99421 h 36.9422 v -10.99421 h 37.651 v 10.99421 h 36.9422 v -10.99421 h 37.6511 v 10.99421 h 36.9421 v -10.99421 h 37.6511 v 10.99421 h 36.9441 v -10.99421 h 37.6511 v 10.99421 h 36.9421 v -10.99421 h 37.6511 v 10.99421 h 26.4894 v 53.56546 h 10.6307 v 54.11562 h -10.6307 v 53.5655 h -26.4894 v 10.9942 h -37.6511 v -10.9942 h -36.9421 v 10.9942 h -37.6511 v -10.9942 h -36.9441 v 10.9942 h -37.6511 v -10.9942 h -36.9421 v 10.9942 h -37.6511 v -10.9942 h -36.9422 v 10.9942 h -37.651 v -10.9942 h -36.9422 v 10.9942 h -37.64907 v -10.9942 h -36.94212 v 10.9942 h -37.6511 v -10.9942 H 878.8577 v 10.9942 h -37.6511 v -10.9942 h -36.94211 v 10.9942 h -37.6511 v -10.9942 h -26.49037 v -53.5655 h -10.62974 v -54.11562 h 10.62974 v -53.56546 z"
       inkscape:connector-curvature="0"
       style="fill:none;stroke:#ff0000;stroke-width:1.01697457;stroke-miterlimit:4;stroke-opacity:1;stroke-dasharray:none" /><rect
       x="803.99469"
       y="1051.8704"
       width="211.22375"
       height="26.971777"
       id="rect152"
       style="fill:none;stroke:#ff0000;stroke-width:1;stroke-miterlimit:4;stroke-opacity:1;stroke-dasharray:none" /></g><path
     id="path2992"
     connector-curvature="0"
     d="m 1082.0021,120.92727 h -55.7879 v 17.125 l 8.2289,5.65001 h 39.5841 l 7.9759,-5.65001 v -17.125 z"
     inkscape:connector-curvature="0"
     style="fill:none;stroke:#ff0000;stroke-opacity:1" /><path
     style="fill:none;stroke:#ff0000;stroke-opacity:1"
     inkscape:connector-curvature="0"
     d="m 1007.0019,120.92727 h -55.78786 v 17.125 l 8.2289,5.65001 h 39.5841 l 7.97586,-5.65001 v -17.125 z"
     connector-curvature="0"
     id="path2994" /><text
     xml:space="preserve"
     style="font-size:19.07329941px;font-style:normal;font-variant:normal;font-weight:normal;font-stretch:normal;line-height:125%;letter-spacing:0px;word-spacing:0px;fill:#000000;fill-opacity:1;stroke:none;font-family:Track;-inkscape-font-specification:Track"
     x="1166.5155"
     y="123.80228"
     id="text2996"
     sodipodi:linespacing="125%"
     transform="scale(0.88444793,1.1306488)"><tspan
       sodipodi:role="line"
       id="tspan2998"
       x="1166.5155"
       y="123.80228">HDMI</tspan></text>
<text
     xml:space="preserve"
     style="font-size:15.6960001px;font-style:normal;font-variant:normal;font-weight:normal;font-stretch:normal;line-height:125%;letter-spacing:0px;word-spacing:0px;fill:#000000;fill-opacity:1;stroke:none;font-family:Track;-inkscape-font-specification:Track"
     x="1234.7111"
     y="125.03966"
     id="text3023"
     sodipodi:linespacing="125%"
     transform="scale(0.8985275,1.112932)"><tspan
       sodipodi:role="line"
       id="tspan3025"
       x="1234.7111"
       y="125.03966">Alim</tspan></text>
<text
     xml:space="preserve"
     style="font-size:15.59563732px;font-style:normal;font-variant:normal;font-weight:normal;font-stretch:normal;line-height:125%;letter-spacing:0px;word-spacing:0px;fill:#000000;fill-opacity:1;stroke:none;font-family:Track;-inkscape-font-specification:Track"
     x="986.10138"
     y="134.31873"
     id="text3027"
     sodipodi:linespacing="125%"
     transform="scale(0.97534911,1.0252739)"><tspan
       sodipodi:role="line"
       id="tspan3029"
       x="986.10138"
       y="134.31873">SON</tspan></text>
</svg>