<?xml version="1.0" encoding="UTF-8" standalone="no"?>
<!-- Generator: Adobe Illustrator 15.1.0, SVG Export Plug-In . SVG Version: 6.00 Build 0)  -->

<svg
   xmlns:dc="http://purl.org/dc/elements/1.1/"
   xmlns:cc="http://creativecommons.org/ns#"
   xmlns:rdf="http://www.w3.org/1999/02/22-rdf-syntax-ns#"
   xmlns:svg="http://www.w3.org/2000/svg"
   xmlns="http://www.w3.org/2000/svg"
   xmlns:sodipodi="http://sodipodi.sourceforge.net/DTD/sodipodi-0.dtd"
   xmlns:inkscape="http://www.inkscape.org/namespaces/inkscape"
   version="1.1"
   x="0px"
   y="0px"
   width="2157.875"
   height="1105.512"
   viewBox="0 0 2157.875 1105.512"
   enable-background="new 0 0 2157.875 1105.512"
   xml:space="preserve"
   id="svg2"
   inkscape:version="0.48.2 r9819"
   sodipodi:docname="V0.3 - Buttons fixation 2.svg"><metadata
   id="metadata267"><rdf:RDF><cc:Work
       rdf:about=""><dc:format>image/svg+xml</dc:format><dc:type
         rdf:resource="http://purl.org/dc/dcmitype/StillImage" /><dc:title></dc:title></cc:Work></rdf:RDF></metadata><defs
   id="defs265">
	
		<sodipodi:namedview
   id="base"
   pagecolor="#ffffff"
   bordercolor="#666666"
   borderopacity="1.0"
   inkscape:pageopacity="0.0"
   inkscape:pageshadow="2"
   inkscape:document-units="mm"
   fit-margin-top="0"
   inkscape:current-layer="layer1"
   showgrid="false"
   fit-margin-left="0"
   fit-margin-right="0"
   fit-margin-bottom="0"
   inkscape:window-maximized="1"
   units="mm">
		</sodipodi:namedview>
	
	
	
	
	
	

	
	
		
	
	
	
	
	
	
	
	
	
	
	
	
	
	
	
	
	
	
	
	
	
	
	
	
	
	
	
	
	
	
	
	
	
	
	
	
	
	
	
	
	
	
	
	
	
	
	
	
	
	
	
	
	
	
	
	
	
	
	
	
	
	
	
	
	
	
	
	
	
	
	
	
	
	
	
	
	
	
	
	
	
	
	
	
	
	
	
	
	
	
	
	
	
	
	
	
	
	
	
	
	
	
	
	

		
		
		
	
			
		
			
			
		
			
			
		
				
				
			
				
				
			
				
				
			
				
				
				
				
				
				
				
				
			
					
					
					
				
					
					
				
						
					
	
	
	
	
	
	

	
	
		
	
	
	
	
	
	
	
	
	
	
	
	
	
	
	
	
	
	
	
	
	
	
	
	
	
	
	
	
	
	
	
	
	
	
	
	
	
	
	
	
	
	
	
	
	
	
	
	
	
	
	
	
	
	
	
	
	
	
	
	
	
	
	
	
	
	
	
	
	
	
	
	
	
	
	
	
	
	
	
	
	
	
	
	
	
	
	
	
	
	
	
	
	
	
	
	
	
	
	
	
	
	
	
	

		
		
		
	
			
		
			
			
		
			
			
		
				
				
			
				
				
			
				
				
			
				
				
				
				
				
				
				
				
			
					
					
					
				
					
					
				
						
					<sodipodi:namedview
   units="mm"
   inkscape:window-maximized="1"
   fit-margin-bottom="0"
   fit-margin-right="0"
   fit-margin-left="0"
   showgrid="false"
   inkscape:current-layer="layer1"
   fit-margin-top="0"
   inkscape:document-units="mm"
   inkscape:pageshadow="2"
   inkscape:pageopacity="0.0"
   borderopacity="1.0"
   bordercolor="#666666"
   pagecolor="#ffffff"
   id="base-8">
		</sodipodi:namedview>
	
		
	
	
	
	
	
	

	
	
		
	
	
	
	
	
	
	
	
	
	
	
	
	
	
	
	
	
	
	
	
	
	
	
	
	
	
	
	
	
	
	
	
	
	
	
	
	
	
	
	
	
	
	
	
	
	
	
	
	
	
	
	
	
	
	
	
	
	
	
	
	
	
	
	
	
	
	
	
	
	
	
	
	
	
	
	
	
	
	
	
	
	
	
	
	
	
	
	
	
	
	
	
	
	
	
	
	
	
	
	
	
	
	
	

		
		
		
	
			
		
			
			
		
			
			
		
				
				
			
				
				
			
				
				
			
				
				
				
				
				
				
				
				
			
					
					
					
				
					
					
				
						
					<sodipodi:namedview
   units="mm"
   inkscape:window-maximized="1"
   fit-margin-bottom="0"
   fit-margin-right="0"
   fit-margin-left="0"
   showgrid="false"
   inkscape:current-layer="layer1"
   fit-margin-top="0"
   inkscape:document-units="mm"
   inkscape:pageshadow="2"
   inkscape:pageopacity="0.0"
   borderopacity="1.0"
   bordercolor="#666666"
   pagecolor="#ffffff"
   id="base-7">
		</sodipodi:namedview>
	
		
	
	
	
	
	
	

	
	
		
	
	
	
	
	
	
	
	
	
	
	
	
	
	
	
	
	
	
	
	
	
	
	
	
	
	
	
	
	
	
	
	
	
	
	
	
	
	
	
	
	
	
	
	
	
	
	
	
	
	
	
	
	
	
	
	
	
	
	
	
	
	
	
	
	
	
	
	
	
	
	
	
	
	
	
	
	
	
	
	
	
	
	
	
	
	
	
	
	
	
	
	
	
	
	
	
	
	
	
	
	
	
	
	

		
		
		
	
			
		
			
			
		
			
			
		
				
				
			
				
				
			
				
				
			
				
				
				
				
				
				
				
				
			
					
					
					
				
					
					
				
						
					<sodipodi:namedview
   units="mm"
   inkscape:window-maximized="1"
   fit-margin-bottom="0"
   fit-margin-right="0"
   fit-margin-left="0"
   showgrid="false"
   inkscape:current-layer="layer1"
   fit-margin-top="0"
   inkscape:document-units="mm"
   inkscape:pageshadow="2"
   inkscape:pageopacity="0.0"
   borderopacity="1.0"
   bordercolor="#666666"
   pagecolor="#ffffff"
   id="base-6">
		</sodipodi:namedview>
	
		</defs><sodipodi:namedview
   pagecolor="#ffffff"
   bordercolor="#666666"
   borderopacity="1"
   objecttolerance="10"
   gridtolerance="10"
   guidetolerance="10"
   inkscape:pageopacity="0"
   inkscape:pageshadow="2"
   inkscape:window-width="1381"
   inkscape:window-height="856"
   id="namedview263"
   showgrid="false"
   inkscape:zoom="0.43097955"
   inkscape:cx="270.24908"
   inkscape:cy="533.48142"
   inkscape:window-x="59"
   inkscape:window-y="0"
   inkscape:window-maximized="1"
   inkscape:current-layer="svg2"
   units="mm" />


<rect
   y="270.01266"
   x="33.61615"
   height="58.973083"
   width="118.98456"
   id="rect5266"
   style="fill:none;stroke:#ff0000;stroke-width:1;stroke-miterlimit:4;stroke-opacity:1;stroke-dasharray:none" /><rect
   y="47.247669"
   x="34.042603"
   height="58.42622"
   width="118.13166"
   id="rect5272"
   style="fill:none;stroke:#ff0000;stroke-width:1;stroke-miterlimit:4;stroke-opacity:1;stroke-dasharray:none" /><rect
   y="195.96092"
   x="33.828094"
   height="58.577705"
   width="118.56065"
   id="rect5274"
   style="fill:none;stroke:#ff0000;stroke-width:1;stroke-miterlimit:4;stroke-opacity:1;stroke-dasharray:none" /><rect
   y="118.98058"
   x="33.668365"
   height="58.238621"
   width="118.88011"
   id="rect5276"
   style="fill:none;stroke:#ff0000;stroke-width:1;stroke-miterlimit:4;stroke-opacity:1;stroke-dasharray:none" /><path
   inkscape:connector-curvature="0"
   id="rect5278"
   d="m 361.70115,634.39914 0,-28.6875 107.875,0 0,28.0938 13.9375,0 0,-69.5938 -13.9375,0 0,29.3125 -107.875,0 0,-30.4687 -11.625,0 0,71.3437 11.625,0 z"
   style="fill:none;stroke:#ff0000;stroke-width:1;stroke-miterlimit:4;stroke-opacity:1;stroke-dasharray:none" /><rect
   style="fill:none;stroke:#ff0000;stroke-width:1;stroke-miterlimit:4;stroke-opacity:1;stroke-dasharray:none"
   id="rect5266-1"
   width="118.98456"
   height="58.973083"
   x="36.591267"
   y="572.35199" /><rect
   style="fill:none;stroke:#ff0000;stroke-width:1;stroke-miterlimit:4;stroke-opacity:1;stroke-dasharray:none"
   id="rect5272-2"
   width="118.13166"
   height="58.42622"
   x="37.378235"
   y="344.56854" /><rect
   style="fill:none;stroke:#ff0000;stroke-width:1;stroke-miterlimit:4;stroke-opacity:1;stroke-dasharray:none"
   id="rect5274-2"
   width="118.56065"
   height="58.577705"
   x="35.603054"
   y="498.71829" /><rect
   style="fill:none;stroke:#ff0000;stroke-width:1;stroke-miterlimit:4;stroke-opacity:1;stroke-dasharray:none"
   id="rect5276-9"
   width="118.88011"
   height="58.238621"
   x="35.883862"
   y="421.77512" /><path
   style="fill:none;stroke:#ff0000;stroke-width:1;stroke-miterlimit:4;stroke-opacity:1;stroke-dasharray:none"
   d="m 215.05375,634.48947 0,-28.6875 107.87501,0 0,28.09375 13.9375,0 0,-69.59375 -13.9375,0 0,29.3125 -107.87501,0 0,-30.46875 -11.625,0 0,71.34375 11.625,0 z"
   id="rect5278-4"
   inkscape:connector-curvature="0" /><g
   id="g3595"><path
     sodipodi:type="arc"
     style="fill:none;stroke:#ff0000;stroke-width:3.3226707;stroke-linecap:round;stroke-linejoin:round;stroke-miterlimit:4;stroke-opacity:1;stroke-dasharray:none"
     id="path3842-7"
     sodipodi:cx="176.27162"
     sodipodi:cy="141.20459"
     sodipodi:rx="8.586297"
     sodipodi:ry="8.0812206"
     d="m 184.85792,141.20459 a 8.586297,8.0812206 0 1 1 -17.1726,0 8.586297,8.0812206 0 1 1 17.1726,0 z"
     transform="matrix(0.29197673,0,0,0.31022528,293.30604,61.49599)" /><path
     sodipodi:type="arc"
     style="fill:none;stroke:#ff0000;stroke-width:3.3226707;stroke-linecap:round;stroke-linejoin:round;stroke-miterlimit:4;stroke-opacity:1;stroke-dasharray:none"
     id="path3842-9-7"
     sodipodi:cx="176.27162"
     sodipodi:cy="141.20459"
     sodipodi:rx="8.586297"
     sodipodi:ry="8.0812206"
     d="m 184.85792,141.20459 a 8.586297,8.0812206 0 1 1 -17.1726,0 8.586297,8.0812206 0 1 1 17.1726,0 z"
     transform="matrix(0.29197673,0,0,0.31022528,344.32942,61.72985)" /><path
     sodipodi:type="arc"
     style="fill:none;stroke:#ff0000;stroke-width:3.3226707;stroke-linecap:round;stroke-linejoin:round;stroke-miterlimit:4;stroke-opacity:1;stroke-dasharray:none"
     id="path3842-3-3"
     sodipodi:cx="176.27162"
     sodipodi:cy="141.20459"
     sodipodi:rx="8.586297"
     sodipodi:ry="8.0812206"
     d="m 184.85792,141.20459 a 8.586297,8.0812206 0 1 1 -17.1726,0 8.586297,8.0812206 0 1 1 17.1726,0 z"
     transform="matrix(0.29197673,0,0,0.31022528,293.30457,79.29521)" /><path
     sodipodi:type="arc"
     style="fill:none;stroke:#ff0000;stroke-width:3.3226707;stroke-linecap:round;stroke-linejoin:round;stroke-miterlimit:4;stroke-opacity:1;stroke-dasharray:none"
     id="path3842-3-2-2"
     sodipodi:cx="176.27162"
     sodipodi:cy="141.20459"
     sodipodi:rx="8.586297"
     sodipodi:ry="8.0812206"
     d="m 184.85792,141.20459 a 8.586297,8.0812206 0 1 1 -17.1726,0 8.586297,8.0812206 0 1 1 17.1726,0 z"
     transform="matrix(0.29197673,0,0,0.31022528,344.32942,79.29521)" /><path
     sodipodi:type="arc"
     style="fill:none;stroke:#ff0000;stroke-width:1.41630256;stroke-linecap:round;stroke-linejoin:round;stroke-miterlimit:4;stroke-opacity:1;stroke-dasharray:none"
     id="path4406-5"
     sodipodi:cx="192.32143"
     sodipodi:cy="127.98718"
     sodipodi:rx="5.3571429"
     sodipodi:ry="4.375"
     d="m 197.67857,127.98718 a 5.3571429,4.375 0 1 1 -10.71429,0 5.3571429,4.375 0 1 1 10.71429,0 z"
     transform="matrix(0.63806717,0,0,0.78130675,246.75086,-2.75702)" /><path
     sodipodi:type="arc"
     style="fill:none;stroke:#ff0000;stroke-width:1.41630256;stroke-linecap:round;stroke-linejoin:round;stroke-miterlimit:4;stroke-opacity:1;stroke-dasharray:none"
     id="path4406-8-6"
     sodipodi:cx="192.32143"
     sodipodi:cy="127.98718"
     sodipodi:rx="5.3571429"
     sodipodi:ry="4.375"
     d="m 197.67857,127.98718 a 5.3571429,4.375 0 1 1 -10.71429,0 5.3571429,4.375 0 1 1 10.71429,0 z"
     transform="matrix(0.63806717,0,0,0.78130675,246.74886,30.50198)" /></g><g
   id="g3579"><path
     transform="matrix(0.29197673,0,0,0.31022528,417.71587,126.25345)"
     d="m 184.85792,141.20459 a 8.586297,8.0812206 0 1 1 -17.1726,0 8.586297,8.0812206 0 1 1 17.1726,0 z"
     sodipodi:ry="8.0812206"
     sodipodi:rx="8.586297"
     sodipodi:cy="141.20459"
     sodipodi:cx="176.27162"
     id="path3842-93"
     style="fill:none;stroke:#ff0000;stroke-width:3.3226707;stroke-linecap:round;stroke-linejoin:round;stroke-miterlimit:4;stroke-opacity:1;stroke-dasharray:none"
     sodipodi:type="arc" /><path
     transform="matrix(0.29197673,0,0,0.31022528,468.73925,126.48731)"
     d="m 184.85792,141.20459 a 8.586297,8.0812206 0 1 1 -17.1726,0 8.586297,8.0812206 0 1 1 17.1726,0 z"
     sodipodi:ry="8.0812206"
     sodipodi:rx="8.586297"
     sodipodi:cy="141.20459"
     sodipodi:cx="176.27162"
     id="path3842-9-0"
     style="fill:none;stroke:#ff0000;stroke-width:3.3226707;stroke-linecap:round;stroke-linejoin:round;stroke-miterlimit:4;stroke-opacity:1;stroke-dasharray:none"
     sodipodi:type="arc" /><path
     transform="matrix(0.29197673,0,0,0.31022528,417.7144,144.05267)"
     d="m 184.85792,141.20459 a 8.586297,8.0812206 0 1 1 -17.1726,0 8.586297,8.0812206 0 1 1 17.1726,0 z"
     sodipodi:ry="8.0812206"
     sodipodi:rx="8.586297"
     sodipodi:cy="141.20459"
     sodipodi:cx="176.27162"
     id="path3842-3-5"
     style="fill:none;stroke:#ff0000;stroke-width:3.3226707;stroke-linecap:round;stroke-linejoin:round;stroke-miterlimit:4;stroke-opacity:1;stroke-dasharray:none"
     sodipodi:type="arc" /><path
     transform="matrix(0.29197673,0,0,0.31022528,468.73925,144.05267)"
     d="m 184.85792,141.20459 a 8.586297,8.0812206 0 1 1 -17.1726,0 8.586297,8.0812206 0 1 1 17.1726,0 z"
     sodipodi:ry="8.0812206"
     sodipodi:rx="8.586297"
     sodipodi:cy="141.20459"
     sodipodi:cx="176.27162"
     id="path3842-3-2-23"
     style="fill:none;stroke:#ff0000;stroke-width:3.3226707;stroke-linecap:round;stroke-linejoin:round;stroke-miterlimit:4;stroke-opacity:1;stroke-dasharray:none"
     sodipodi:type="arc" /><path
     transform="matrix(0.63806717,0,0,0.78130675,371.16069,62.00044)"
     d="m 197.67857,127.98718 a 5.3571429,4.375 0 1 1 -10.71429,0 5.3571429,4.375 0 1 1 10.71429,0 z"
     sodipodi:ry="4.375"
     sodipodi:rx="5.3571429"
     sodipodi:cy="127.98718"
     sodipodi:cx="192.32143"
     id="path4406-87"
     style="fill:none;stroke:#ff0000;stroke-width:1.41630256;stroke-linecap:round;stroke-linejoin:round;stroke-miterlimit:4;stroke-opacity:1;stroke-dasharray:none"
     sodipodi:type="arc" /><path
     transform="matrix(0.63806717,0,0,0.78130675,371.15869,95.25944)"
     d="m 197.67857,127.98718 a 5.3571429,4.375 0 1 1 -10.71429,0 5.3571429,4.375 0 1 1 10.71429,0 z"
     sodipodi:ry="4.375"
     sodipodi:rx="5.3571429"
     sodipodi:cy="127.98718"
     sodipodi:cx="192.32143"
     id="path4406-8-8"
     style="fill:none;stroke:#ff0000;stroke-width:1.41630256;stroke-linecap:round;stroke-linejoin:round;stroke-miterlimit:4;stroke-opacity:1;stroke-dasharray:none"
     sodipodi:type="arc" /></g><rect
   style="fill:none;stroke:#ff0000;stroke-width:1;stroke-miterlimit:4;stroke-opacity:1;stroke-dasharray:none"
   id="rect5211"
   width="382.84879"
   height="262.7735"
   x="181.25525"
   y="47.140911" /><g
   id="g3587"><path
     sodipodi:type="arc"
     style="fill:none;stroke:#ff0000;stroke-width:3.3226707;stroke-linecap:round;stroke-linejoin:round;stroke-miterlimit:4;stroke-opacity:1;stroke-dasharray:none"
     id="path3842-1"
     sodipodi:cx="176.27162"
     sodipodi:cy="141.20459"
     sodipodi:rx="8.586297"
     sodipodi:ry="8.0812206"
     d="m 184.85792,141.20459 a 8.586297,8.0812206 0 1 1 -17.1726,0 8.586297,8.0812206 0 1 1 17.1726,0 z"
     transform="matrix(0.29197673,0,0,0.31022528,291.60623,191.01092)" /><path
     sodipodi:type="arc"
     style="fill:none;stroke:#ff0000;stroke-width:3.3226707;stroke-linecap:round;stroke-linejoin:round;stroke-miterlimit:4;stroke-opacity:1;stroke-dasharray:none"
     id="path3842-9-9"
     sodipodi:cx="176.27162"
     sodipodi:cy="141.20459"
     sodipodi:rx="8.586297"
     sodipodi:ry="8.0812206"
     d="m 184.85792,141.20459 a 8.586297,8.0812206 0 1 1 -17.1726,0 8.586297,8.0812206 0 1 1 17.1726,0 z"
     transform="matrix(0.29197673,0,0,0.31022528,342.62961,191.24478)" /><path
     sodipodi:type="arc"
     style="fill:none;stroke:#ff0000;stroke-width:3.3226707;stroke-linecap:round;stroke-linejoin:round;stroke-miterlimit:4;stroke-opacity:1;stroke-dasharray:none"
     id="path3842-3-57"
     sodipodi:cx="176.27162"
     sodipodi:cy="141.20459"
     sodipodi:rx="8.586297"
     sodipodi:ry="8.0812206"
     d="m 184.85792,141.20459 a 8.586297,8.0812206 0 1 1 -17.1726,0 8.586297,8.0812206 0 1 1 17.1726,0 z"
     transform="matrix(0.29197673,0,0,0.31022528,291.60476,208.81014)" /><path
     sodipodi:type="arc"
     style="fill:none;stroke:#ff0000;stroke-width:3.3226707;stroke-linecap:round;stroke-linejoin:round;stroke-miterlimit:4;stroke-opacity:1;stroke-dasharray:none"
     id="path3842-3-2-6"
     sodipodi:cx="176.27162"
     sodipodi:cy="141.20459"
     sodipodi:rx="8.586297"
     sodipodi:ry="8.0812206"
     d="m 184.85792,141.20459 a 8.586297,8.0812206 0 1 1 -17.1726,0 8.586297,8.0812206 0 1 1 17.1726,0 z"
     transform="matrix(0.29197673,0,0,0.31022528,342.62961,208.81014)" /><path
     sodipodi:type="arc"
     style="fill:none;stroke:#ff0000;stroke-width:1.41630256;stroke-linecap:round;stroke-linejoin:round;stroke-miterlimit:4;stroke-opacity:1;stroke-dasharray:none"
     id="path4406-85"
     sodipodi:cx="192.32143"
     sodipodi:cy="127.98718"
     sodipodi:rx="5.3571429"
     sodipodi:ry="4.375"
     d="m 197.67857,127.98718 a 5.3571429,4.375 0 1 1 -10.71429,0 5.3571429,4.375 0 1 1 10.71429,0 z"
     transform="matrix(0.63806717,0,0,0.78130675,245.05105,126.75791)" /><path
     sodipodi:type="arc"
     style="fill:none;stroke:#ff0000;stroke-width:1.41630256;stroke-linecap:round;stroke-linejoin:round;stroke-miterlimit:4;stroke-opacity:1;stroke-dasharray:none"
     id="path4406-8-4"
     sodipodi:cx="192.32143"
     sodipodi:cy="127.98718"
     sodipodi:rx="5.3571429"
     sodipodi:ry="4.375"
     d="m 197.67857,127.98718 a 5.3571429,4.375 0 1 1 -10.71429,0 5.3571429,4.375 0 1 1 10.71429,0 z"
     transform="matrix(0.63806717,0,0,0.78130675,245.04905,160.01691)" /></g><g
   id="g3603"><path
     transform="matrix(0.29197673,0,0,0.31022528,165.49653,126.25346)"
     d="m 184.85792,141.20459 a 8.586297,8.0812206 0 1 1 -17.1726,0 8.586297,8.0812206 0 1 1 17.1726,0 z"
     sodipodi:ry="8.0812206"
     sodipodi:rx="8.586297"
     sodipodi:cy="141.20459"
     sodipodi:cx="176.27162"
     id="path3842"
     style="fill:none;stroke:#ff0000;stroke-width:3.3226707;stroke-linecap:round;stroke-linejoin:round;stroke-miterlimit:4;stroke-opacity:1;stroke-dasharray:none"
     sodipodi:type="arc" /><path
     transform="matrix(0.29197673,0,0,0.31022528,216.51991,126.48732)"
     d="m 184.85792,141.20459 a 8.586297,8.0812206 0 1 1 -17.1726,0 8.586297,8.0812206 0 1 1 17.1726,0 z"
     sodipodi:ry="8.0812206"
     sodipodi:rx="8.586297"
     sodipodi:cy="141.20459"
     sodipodi:cx="176.27162"
     id="path3842-9"
     style="fill:none;stroke:#ff0000;stroke-width:3.3226707;stroke-linecap:round;stroke-linejoin:round;stroke-miterlimit:4;stroke-opacity:1;stroke-dasharray:none"
     sodipodi:type="arc" /><path
     transform="matrix(0.29197673,0,0,0.31022528,165.49506,144.05268)"
     d="m 184.85792,141.20459 a 8.586297,8.0812206 0 1 1 -17.1726,0 8.586297,8.0812206 0 1 1 17.1726,0 z"
     sodipodi:ry="8.0812206"
     sodipodi:rx="8.586297"
     sodipodi:cy="141.20459"
     sodipodi:cx="176.27162"
     id="path3842-3"
     style="fill:none;stroke:#ff0000;stroke-width:3.3226707;stroke-linecap:round;stroke-linejoin:round;stroke-miterlimit:4;stroke-opacity:1;stroke-dasharray:none"
     sodipodi:type="arc" /><path
     transform="matrix(0.29197673,0,0,0.31022528,216.51991,144.05268)"
     d="m 184.85792,141.20459 a 8.586297,8.0812206 0 1 1 -17.1726,0 8.586297,8.0812206 0 1 1 17.1726,0 z"
     sodipodi:ry="8.0812206"
     sodipodi:rx="8.586297"
     sodipodi:cy="141.20459"
     sodipodi:cx="176.27162"
     id="path3842-3-2"
     style="fill:none;stroke:#ff0000;stroke-width:3.3226707;stroke-linecap:round;stroke-linejoin:round;stroke-miterlimit:4;stroke-opacity:1;stroke-dasharray:none"
     sodipodi:type="arc" /><path
     transform="matrix(0.63806717,0,0,0.78130675,118.94135,62.00045)"
     d="m 197.67857,127.98718 a 5.3571429,4.375 0 1 1 -10.71429,0 5.3571429,4.375 0 1 1 10.71429,0 z"
     sodipodi:ry="4.375"
     sodipodi:rx="5.3571429"
     sodipodi:cy="127.98718"
     sodipodi:cx="192.32143"
     id="path4406"
     style="fill:none;stroke:#ff0000;stroke-width:1.41630256;stroke-linecap:round;stroke-linejoin:round;stroke-miterlimit:4;stroke-opacity:1;stroke-dasharray:none"
     sodipodi:type="arc" /><path
     transform="matrix(0.63806717,0,0,0.78130675,118.93935,95.25945)"
     d="m 197.67857,127.98718 a 5.3571429,4.375 0 1 1 -10.71429,0 5.3571429,4.375 0 1 1 10.71429,0 z"
     sodipodi:ry="4.375"
     sodipodi:rx="5.3571429"
     sodipodi:cy="127.98718"
     sodipodi:cx="192.32143"
     id="path4406-8"
     style="fill:none;stroke:#ff0000;stroke-width:1.41630256;stroke-linecap:round;stroke-linejoin:round;stroke-miterlimit:4;stroke-opacity:1;stroke-dasharray:none"
     sodipodi:type="arc" /></g><path
   sodipodi:type="arc"
   style="fill:none;stroke:#ff0000;stroke-width:1.64129579;stroke-linecap:round;stroke-linejoin:round;stroke-miterlimit:4;stroke-opacity:1;stroke-dasharray:none"
   id="path3757-1"
   sodipodi:cx="202.85715"
   sodipodi:cy="186.6479"
   sodipodi:rx="91.428574"
   sodipodi:ry="88.571426"
   d="m 294.28572,186.6479 a 91.428574,88.571426 0 1 1 -182.85715,0 91.428574,88.571426 0 1 1 182.85715,0 z"
   transform="matrix(-0.5996792,0,0,-0.61902374,721.50637,612.4729)" /><path
   sodipodi:type="arc"
   style="fill:none;stroke:#ff0000;stroke-width:2.03591347;stroke-linecap:round;stroke-linejoin:round;stroke-miterlimit:4;stroke-opacity:1;stroke-dasharray:none"
   id="path3757-5-9"
   sodipodi:cx="202.85715"
   sodipodi:cy="186.6479"
   sodipodi:rx="91.428574"
   sodipodi:ry="88.571426"
   d="m 294.28572,186.6479 a 91.428574,88.571426 0 1 1 -182.85715,0 91.428574,88.571426 0 1 1 182.85715,0 z"
   transform="matrix(-0.48344439,0,0,-0.49903939,698.24283,590.334)" /><path
   transform="matrix(-0.5996792,0,0,-0.61902374,602.13218,612.473)"
   d="m 294.28572,186.6479 a 91.428574,88.571426 0 1 1 -182.85715,0 91.428574,88.571426 0 1 1 182.85715,0 z"
   sodipodi:ry="88.571426"
   sodipodi:rx="91.428574"
   sodipodi:cy="186.6479"
   sodipodi:cx="202.85715"
   id="path3757-0"
   style="fill:none;stroke:#ff0000;stroke-width:1.64129579;stroke-linecap:round;stroke-linejoin:round;stroke-miterlimit:4;stroke-opacity:1;stroke-dasharray:none"
   sodipodi:type="arc" /><path
   transform="matrix(-0.48344439,0,0,-0.49903939,578.86864,590.3341)"
   d="m 294.28572,186.6479 a 91.428574,88.571426 0 1 1 -182.85715,0 91.428574,88.571426 0 1 1 182.85715,0 z"
   sodipodi:ry="88.571426"
   sodipodi:rx="91.428574"
   sodipodi:cy="186.6479"
   sodipodi:cx="202.85715"
   id="path3757-5-5"
   style="fill:none;stroke:#ff0000;stroke-width:2.03591347;stroke-linecap:round;stroke-linejoin:round;stroke-miterlimit:4;stroke-opacity:1;stroke-dasharray:none"
   sodipodi:type="arc" /><path
   sodipodi:type="arc"
   style="fill:none;stroke:#ff0000;stroke-width:1.64129579;stroke-linecap:round;stroke-linejoin:round;stroke-miterlimit:4;stroke-opacity:1;stroke-dasharray:none"
   id="path3757-6"
   sodipodi:cx="202.85715"
   sodipodi:cy="186.6479"
   sodipodi:rx="91.428574"
   sodipodi:ry="88.571426"
   d="m 294.28572,186.6479 a 91.428574,88.571426 0 1 1 -182.85715,0 91.428574,88.571426 0 1 1 182.85715,0 z"
   transform="matrix(-0.5996792,0,0,-0.61902374,482.758,612.4729)" /><path
   sodipodi:type="arc"
   style="fill:none;stroke:#ff0000;stroke-width:2.03591347;stroke-linecap:round;stroke-linejoin:round;stroke-miterlimit:4;stroke-opacity:1;stroke-dasharray:none"
   id="path3757-5-09"
   sodipodi:cx="202.85715"
   sodipodi:cy="186.6479"
   sodipodi:rx="91.428574"
   sodipodi:ry="88.571426"
   d="m 294.28572,186.6479 a 91.428574,88.571426 0 1 1 -182.85715,0 91.428574,88.571426 0 1 1 182.85715,0 z"
   transform="matrix(-0.48344439,0,0,-0.49903939,459.49446,590.334)" /><path
   sodipodi:type="arc"
   style="fill:none;stroke:#ff0000;stroke-width:1.64129579;stroke-linecap:round;stroke-linejoin:round;stroke-miterlimit:4;stroke-opacity:1;stroke-dasharray:none"
   id="path3757-8"
   sodipodi:cx="202.85715"
   sodipodi:cy="186.6479"
   sodipodi:rx="91.428574"
   sodipodi:ry="88.571426"
   d="m 294.28572,186.6479 a 91.428574,88.571426 0 1 1 -182.85715,0 91.428574,88.571426 0 1 1 182.85715,0 z"
   transform="matrix(-0.5996792,0,0,-0.61902374,363.38377,612.4729)" /><path
   sodipodi:type="arc"
   style="fill:none;stroke:#ff0000;stroke-width:2.03591347;stroke-linecap:round;stroke-linejoin:round;stroke-miterlimit:4;stroke-opacity:1;stroke-dasharray:none"
   id="path3757-5-7"
   sodipodi:cx="202.85715"
   sodipodi:cy="186.6479"
   sodipodi:rx="91.428574"
   sodipodi:ry="88.571426"
   d="m 294.28572,186.6479 a 91.428574,88.571426 0 1 1 -182.85715,0 91.428574,88.571426 0 1 1 182.85715,0 z"
   transform="matrix(-0.48344439,0,0,-0.49903939,340.12023,590.334)" /><path
   transform="matrix(-0.5996792,0,0,-0.61902374,723.98679,493.0615)"
   d="m 294.28572,186.6479 a 91.428574,88.571426 0 1 1 -182.85715,0 91.428574,88.571426 0 1 1 182.85715,0 z"
   sodipodi:ry="88.571426"
   sodipodi:rx="91.428574"
   sodipodi:cy="186.6479"
   sodipodi:cx="202.85715"
   id="path3757-2"
   style="fill:none;stroke:#ff0000;stroke-width:1.64129579;stroke-linecap:round;stroke-linejoin:round;stroke-miterlimit:4;stroke-opacity:1;stroke-dasharray:none"
   sodipodi:type="arc" /><path
   transform="matrix(-0.48344439,0,0,-0.49903939,700.72325,470.9226)"
   d="m 294.28572,186.6479 a 91.428574,88.571426 0 1 1 -182.85715,0 91.428574,88.571426 0 1 1 182.85715,0 z"
   sodipodi:ry="88.571426"
   sodipodi:rx="91.428574"
   sodipodi:cy="186.6479"
   sodipodi:cx="202.85715"
   id="path3757-5-3"
   style="fill:none;stroke:#ff0000;stroke-width:2.03591347;stroke-linecap:round;stroke-linejoin:round;stroke-miterlimit:4;stroke-opacity:1;stroke-dasharray:none"
   sodipodi:type="arc" /><path
   sodipodi:type="arc"
   style="fill:none;stroke:#ff0000;stroke-width:1.64129579;stroke-linecap:round;stroke-linejoin:round;stroke-miterlimit:4;stroke-opacity:1;stroke-dasharray:none"
   id="path3757-05"
   sodipodi:cx="202.85715"
   sodipodi:cy="186.6479"
   sodipodi:rx="91.428574"
   sodipodi:ry="88.571426"
   d="m 294.28572,186.6479 a 91.428574,88.571426 0 1 1 -182.85715,0 91.428574,88.571426 0 1 1 182.85715,0 z"
   transform="matrix(-0.5996792,0,0,-0.61902374,602.95895,493.0615)" /><path
   sodipodi:type="arc"
   style="fill:none;stroke:#ff0000;stroke-width:2.03591347;stroke-linecap:round;stroke-linejoin:round;stroke-miterlimit:4;stroke-opacity:1;stroke-dasharray:none"
   id="path3757-5-53"
   sodipodi:cx="202.85715"
   sodipodi:cy="186.6479"
   sodipodi:rx="91.428574"
   sodipodi:ry="88.571426"
   d="m 294.28572,186.6479 a 91.428574,88.571426 0 1 1 -182.85715,0 91.428574,88.571426 0 1 1 182.85715,0 z"
   transform="matrix(-0.48344439,0,0,-0.49903939,579.69541,470.9226)" /><path
   transform="matrix(-0.5996792,0,0,-0.61902374,481.93114,493.0615)"
   d="m 294.28572,186.6479 a 91.428574,88.571426 0 1 1 -182.85715,0 91.428574,88.571426 0 1 1 182.85715,0 z"
   sodipodi:ry="88.571426"
   sodipodi:rx="91.428574"
   sodipodi:cy="186.6479"
   sodipodi:cx="202.85715"
   id="path3757-26"
   style="fill:none;stroke:#ff0000;stroke-width:1.64129579;stroke-linecap:round;stroke-linejoin:round;stroke-miterlimit:4;stroke-opacity:1;stroke-dasharray:none"
   sodipodi:type="arc" /><path
   transform="matrix(-0.48344439,0,0,-0.49903939,458.6676,470.9226)"
   d="m 294.28572,186.6479 a 91.428574,88.571426 0 1 1 -182.85715,0 91.428574,88.571426 0 1 1 182.85715,0 z"
   sodipodi:ry="88.571426"
   sodipodi:rx="91.428574"
   sodipodi:cy="186.6479"
   sodipodi:cx="202.85715"
   id="path3757-5-8"
   style="fill:none;stroke:#ff0000;stroke-width:2.03591347;stroke-linecap:round;stroke-linejoin:round;stroke-miterlimit:4;stroke-opacity:1;stroke-dasharray:none"
   sodipodi:type="arc" /><path
   transform="matrix(-0.5996792,0,0,-0.61902374,360.9033,493.0615)"
   d="m 294.28572,186.6479 a 91.428574,88.571426 0 1 1 -182.85715,0 91.428574,88.571426 0 1 1 182.85715,0 z"
   sodipodi:ry="88.571426"
   sodipodi:rx="91.428574"
   sodipodi:cy="186.6479"
   sodipodi:cx="202.85715"
   id="path3757-3"
   style="fill:none;stroke:#ff0000;stroke-width:1.64129579;stroke-linecap:round;stroke-linejoin:round;stroke-miterlimit:4;stroke-opacity:1;stroke-dasharray:none"
   sodipodi:type="arc" /><path
   transform="matrix(-0.48344439,0,0,-0.49903939,337.63976,470.9226)"
   d="m 294.28572,186.6479 a 91.428574,88.571426 0 1 1 -182.85715,0 91.428574,88.571426 0 1 1 182.85715,0 z"
   sodipodi:ry="88.571426"
   sodipodi:rx="91.428574"
   sodipodi:cy="186.6479"
   sodipodi:cx="202.85715"
   id="path3757-5-1"
   style="fill:none;stroke:#ff0000;stroke-width:2.03591347;stroke-linecap:round;stroke-linejoin:round;stroke-miterlimit:4;stroke-opacity:1;stroke-dasharray:none"
   sodipodi:type="arc" /><rect
   style="fill:none;stroke:#ff0000;stroke-width:0.80828315;stroke-miterlimit:4;stroke-opacity:1;stroke-dasharray:none"
   id="rect10676"
   width="671.01672"
   height="631.87793"
   x="23.202925"
   y="19.215532" /><flowRoot
   xml:space="preserve"
   id="flowRoot3171"
   style="font-size:40px;font-style:normal;font-variant:normal;font-weight:normal;font-stretch:normal;line-height:125%;letter-spacing:0px;word-spacing:0px;fill:#000000;fill-opacity:1;stroke:none;font-family:Track;-inkscape-font-specification:Track"
   transform="matrix(0,0.66372525,-0.66372525,0,710.16199,-103.00645)"><flowRegion
     id="flowRegion3173"><rect
       id="rect3175"
       width="426.93445"
       height="109.05389"
       x="211.14691"
       y="77.620964" /></flowRegion><flowPara
     id="flowPara3177">Fixations pour le Pad de 4 boutons</flowPara></flowRoot><circle
   transform="translate(90.933197,-460.89017)"
   cx="794.29102"
   cy="585.849"
   r="83"
   id="circle24"
   sodipodi:cx="794.29102"
   sodipodi:cy="585.849"
   sodipodi:rx="83"
   sodipodi:ry="83"
   style="fill:none;stroke:#ff0000;stroke-width:1;stroke-miterlimit:4;stroke-opacity:1;stroke-dasharray:none"
   d="m 877.29102,585.849 c 0,45.83963 -37.16037,83 -83,83 -45.83964,0 -83,-37.16037 -83,-83 0,-45.83964 37.16036,-83 83,-83 45.83963,0 83,37.16036 83,83 z" /><circle
   d="m 877.29102,585.849 c 0,45.83963 -37.16037,83 -83,83 -45.83964,0 -83,-37.16037 -83,-83 0,-45.83964 37.16036,-83 83,-83 45.83963,0 83,37.16036 83,83 z"
   style="fill:none;stroke:#ff0000;stroke-width:1;stroke-miterlimit:4;stroke-opacity:1;stroke-dasharray:none"
   sodipodi:ry="83"
   sodipodi:rx="83"
   sodipodi:cy="585.849"
   sodipodi:cx="794.29102"
   id="circle3192"
   r="83"
   cy="585.849"
   cx="794.29102"
   transform="matrix(0.80842161,0,0,0.80842161,243.10219,-348.65416)" /><rect
   style="fill:none;stroke:#ff0000;stroke-width:1;stroke-miterlimit:4;stroke-opacity:1;stroke-dasharray:none"
   id="rect3190"
   width="221.49408"
   height="210.0092"
   x="774.47717"
   y="21.690958" /><circle
   d="m 877.29102,585.849 c 0,45.83963 -37.16037,83 -83,83 -45.83964,0 -83,-37.16037 -83,-83 0,-45.83964 37.16036,-83 83,-83 45.83963,0 83,37.16036 83,83 z"
   style="fill:none;stroke:#ff0000;stroke-width:1;stroke-miterlimit:4;stroke-opacity:1;stroke-dasharray:none"
   sodipodi:ry="83"
   sodipodi:rx="83"
   sodipodi:cy="585.849"
   sodipodi:cx="794.29102"
   id="circle3367"
   r="83"
   cy="585.849"
   cx="794.29102"
   transform="translate(90.933197,-232.8333)" /><circle
   transform="matrix(0.80842161,0,0,0.80842161,243.10219,-120.59729)"
   cx="794.29102"
   cy="585.849"
   r="83"
   id="circle3369"
   sodipodi:cx="794.29102"
   sodipodi:cy="585.849"
   sodipodi:rx="83"
   sodipodi:ry="83"
   style="fill:none;stroke:#ff0000;stroke-width:1;stroke-miterlimit:4;stroke-opacity:1;stroke-dasharray:none"
   d="m 877.29102,585.849 c 0,45.83963 -37.16037,83 -83,83 -45.83964,0 -83,-37.16037 -83,-83 0,-45.83964 37.16036,-83 83,-83 45.83963,0 83,37.16036 83,83 z" /><rect
   y="249.74782"
   x="774.47717"
   height="210.0092"
   width="221.49408"
   id="rect3377"
   style="fill:none;stroke:#ff0000;stroke-width:1;stroke-miterlimit:4;stroke-opacity:1;stroke-dasharray:none" /><rect
   style="fill:none;stroke:#ff0000;stroke-width:1;stroke-miterlimit:4;stroke-opacity:1;stroke-dasharray:none"
   id="rect3625"
   width="221.49408"
   height="210.0092"
   x="774.47717"
   y="470.42154" /><g
   transform="translate(516.63982,332.04149)"
   id="g3627"><path
     sodipodi:type="arc"
     style="fill:none;stroke:#ff0000;stroke-width:3.3226707;stroke-linecap:round;stroke-linejoin:round;stroke-miterlimit:4;stroke-opacity:1;stroke-dasharray:none"
     id="path3629"
     sodipodi:cx="176.27162"
     sodipodi:cy="141.20459"
     sodipodi:rx="8.586297"
     sodipodi:ry="8.0812206"
     d="m 184.85792,141.20459 c 0,4.46313 -3.84422,8.08122 -8.5863,8.08122 -4.74208,0 -8.5863,-3.61809 -8.5863,-8.08122 0,-4.46314 3.84422,-8.08122 8.5863,-8.08122 4.74208,0 8.5863,3.61808 8.5863,8.08122 z"
     transform="matrix(0.29197673,0,0,0.31022528,291.60623,191.01092)" /><path
     sodipodi:type="arc"
     style="fill:none;stroke:#ff0000;stroke-width:3.3226707;stroke-linecap:round;stroke-linejoin:round;stroke-miterlimit:4;stroke-opacity:1;stroke-dasharray:none"
     id="path3631"
     sodipodi:cx="176.27162"
     sodipodi:cy="141.20459"
     sodipodi:rx="8.586297"
     sodipodi:ry="8.0812206"
     d="m 184.85792,141.20459 c 0,4.46313 -3.84422,8.08122 -8.5863,8.08122 -4.74208,0 -8.5863,-3.61809 -8.5863,-8.08122 0,-4.46314 3.84422,-8.08122 8.5863,-8.08122 4.74208,0 8.5863,3.61808 8.5863,8.08122 z"
     transform="matrix(0.29197673,0,0,0.31022528,342.62961,191.24478)" /><path
     sodipodi:type="arc"
     style="fill:none;stroke:#ff0000;stroke-width:3.3226707;stroke-linecap:round;stroke-linejoin:round;stroke-miterlimit:4;stroke-opacity:1;stroke-dasharray:none"
     id="path3633"
     sodipodi:cx="176.27162"
     sodipodi:cy="141.20459"
     sodipodi:rx="8.586297"
     sodipodi:ry="8.0812206"
     d="m 184.85792,141.20459 c 0,4.46313 -3.84422,8.08122 -8.5863,8.08122 -4.74208,0 -8.5863,-3.61809 -8.5863,-8.08122 0,-4.46314 3.84422,-8.08122 8.5863,-8.08122 4.74208,0 8.5863,3.61808 8.5863,8.08122 z"
     transform="matrix(0.29197673,0,0,0.31022528,291.60476,208.81014)" /><path
     sodipodi:type="arc"
     style="fill:none;stroke:#ff0000;stroke-width:3.3226707;stroke-linecap:round;stroke-linejoin:round;stroke-miterlimit:4;stroke-opacity:1;stroke-dasharray:none"
     id="path3635"
     sodipodi:cx="176.27162"
     sodipodi:cy="141.20459"
     sodipodi:rx="8.586297"
     sodipodi:ry="8.0812206"
     d="m 184.85792,141.20459 c 0,4.46313 -3.84422,8.08122 -8.5863,8.08122 -4.74208,0 -8.5863,-3.61809 -8.5863,-8.08122 0,-4.46314 3.84422,-8.08122 8.5863,-8.08122 4.74208,0 8.5863,3.61808 8.5863,8.08122 z"
     transform="matrix(0.29197673,0,0,0.31022528,342.62961,208.81014)" /><path
     sodipodi:type="arc"
     style="fill:none;stroke:#ff0000;stroke-width:1.41630256;stroke-linecap:round;stroke-linejoin:round;stroke-miterlimit:4;stroke-opacity:1;stroke-dasharray:none"
     id="path3637"
     sodipodi:cx="192.32143"
     sodipodi:cy="127.98718"
     sodipodi:rx="5.3571429"
     sodipodi:ry="4.375"
     d="m 197.67857,127.98718 c 0,2.41625 -2.39848,4.375 -5.35714,4.375 -2.95867,0 -5.35715,-1.95875 -5.35715,-4.375 0,-2.41624 2.39848,-4.375 5.35715,-4.375 2.95866,0 5.35714,1.95876 5.35714,4.375 z"
     transform="matrix(0.63806717,0,0,0.78130675,245.05105,126.75791)" /><path
     sodipodi:type="arc"
     style="fill:none;stroke:#ff0000;stroke-width:1.41630256;stroke-linecap:round;stroke-linejoin:round;stroke-miterlimit:4;stroke-opacity:1;stroke-dasharray:none"
     id="path3639"
     sodipodi:cx="192.32143"
     sodipodi:cy="127.98718"
     sodipodi:rx="5.3571429"
     sodipodi:ry="4.375"
     d="m 197.67857,127.98718 c 0,2.41625 -2.39848,4.375 -5.35714,4.375 -2.95867,0 -5.35715,-1.95875 -5.35715,-4.375 0,-2.41624 2.39848,-4.375 5.35715,-4.375 2.95866,0 5.35714,1.95876 5.35714,4.375 z"
     transform="matrix(0.63806717,0,0,0.78130675,245.04905,160.01691)" /></g><rect
   style="fill:none;stroke:#ff0000;stroke-width:1;stroke-miterlimit:4;stroke-opacity:1;stroke-dasharray:none"
   id="rect3641"
   width="255.23253"
   height="795.86145"
   x="758.73669"
   y="10.332389"
   transform="translate(-3.6217334e-5,0)" /><flowRoot
   transform="matrix(0.66372525,0,0,0.66372525,637.48889,663.90341)"
   style="font-size:40px;font-style:normal;font-variant:normal;font-weight:normal;font-stretch:normal;line-height:125%;letter-spacing:0px;word-spacing:0px;fill:#000000;fill-opacity:1;stroke:none;font-family:Track;-inkscape-font-specification:Track"
   id="flowRoot3643"
   xml:space="preserve"><flowRegion
     id="flowRegion3645"><rect
       y="77.620964"
       x="211.14691"
       height="123.03736"
       width="416.44687"
       id="rect3647" /></flowRegion><flowPara
     id="flowPara3649">Fixations Pour Share</flowPara></flowRoot></svg>