<?xml version="1.0" encoding="UTF-8" standalone="no"?>
<!-- Created with Inkscape (http://www.inkscape.org/) -->

<svg
   xmlns:dc="http://purl.org/dc/elements/1.1/"
   xmlns:cc="http://creativecommons.org/ns#"
   xmlns:rdf="http://www.w3.org/1999/02/22-rdf-syntax-ns#"
   xmlns:svg="http://www.w3.org/2000/svg"
   xmlns="http://www.w3.org/2000/svg"
   xmlns:sodipodi="http://sodipodi.sourceforge.net/DTD/sodipodi-0.dtd"
   xmlns:inkscape="http://www.inkscape.org/namespaces/inkscape"
   width="88.582672"
   height="70.866142"
   id="svg3834"
   version="1.1"
   inkscape:version="0.48.4 r9939"
   sodipodi:docname="Nouveau document 8">
  <defs
     id="defs3836" />
  <sodipodi:namedview
     id="base"
     pagecolor="#ffffff"
     bordercolor="#666666"
     borderopacity="1.0"
     inkscape:pageopacity="0.0"
     inkscape:pageshadow="2"
     inkscape:zoom="7.9195959"
     inkscape:cx="49.808348"
     inkscape:cy="37.622484"
     inkscape:document-units="px"
     inkscape:current-layer="layer1"
     showgrid="false"
     units="mm"
     inkscape:window-width="1280"
     inkscape:window-height="962"
     inkscape:window-x="-8"
     inkscape:window-y="-8"
     inkscape:window-maximized="1" />
  <metadata
     id="metadata3839">
    <rdf:RDF>
      <cc:Work
         rdf:about="">
        <dc:format>image/svg+xml</dc:format>
        <dc:type
           rdf:resource="http://purl.org/dc/dcmitype/StillImage" />
        <dc:title></dc:title>
      </cc:Work>
    </rdf:RDF>
  </metadata>
  <g
     inkscape:label="Calque 1"
     inkscape:groupmode="layer"
     id="layer1"
     transform="translate(0,-981.49606)">
    <path
       sodipodi:type="arc"
       style="fill:none;stroke:#ff0000;stroke-width:0.01177325;stroke-linecap:round;stroke-linejoin:round;stroke-miterlimit:4;stroke-opacity:1;stroke-dasharray:none"
       id="path3842"
       sodipodi:cx="176.27162"
       sodipodi:cy="141.20459"
       sodipodi:rx="8.586297"
       sodipodi:ry="8.0812206"
       d="m 184.85792,141.20459 a 8.586297,8.0812206 0 1 1 -17.1726,0 8.586297,8.0812206 0 1 1 17.1726,0 z"
       transform="matrix(0.29197673,0,0,0.31022528,-35.167587,961.95275)" />
    <path
       sodipodi:type="arc"
       style="fill:none;stroke:#ff0000;stroke-width:0.01177325;stroke-linecap:round;stroke-linejoin:round;stroke-miterlimit:4;stroke-opacity:1;stroke-dasharray:none"
       id="path3842-9"
       sodipodi:cx="176.27162"
       sodipodi:cy="141.20459"
       sodipodi:rx="8.586297"
       sodipodi:ry="8.0812206"
       d="m 184.85792,141.20459 a 8.586297,8.0812206 0 1 1 -17.1726,0 8.586297,8.0812206 0 1 1 17.1726,0 z"
       transform="matrix(0.29197673,0,0,0.31022528,15.855787,962.18661)" />
    <path
       sodipodi:type="arc"
       style="fill:none;stroke:#ff0000;stroke-width:0.01177325;stroke-linecap:round;stroke-linejoin:round;stroke-miterlimit:4;stroke-opacity:1;stroke-dasharray:none"
       id="path3842-3"
       sodipodi:cx="176.27162"
       sodipodi:cy="141.20459"
       sodipodi:rx="8.586297"
       sodipodi:ry="8.0812206"
       d="m 184.85792,141.20459 a 8.586297,8.0812206 0 1 1 -17.1726,0 8.586297,8.0812206 0 1 1 17.1726,0 z"
       transform="matrix(0.29197673,0,0,0.31022528,-35.169057,979.75197)" />
    <path
       sodipodi:type="arc"
       style="fill:none;stroke:#ff0000;stroke-width:0.01177325;stroke-linecap:round;stroke-linejoin:round;stroke-miterlimit:4;stroke-opacity:1;stroke-dasharray:none"
       id="path3842-3-2"
       sodipodi:cx="176.27162"
       sodipodi:cy="141.20459"
       sodipodi:rx="8.586297"
       sodipodi:ry="8.0812206"
       d="m 184.85792,141.20459 a 8.586297,8.0812206 0 1 1 -17.1726,0 8.586297,8.0812206 0 1 1 17.1726,0 z"
       transform="matrix(0.29197673,0,0,0.31022528,15.855787,979.75197)" />
    <path
       sodipodi:type="arc"
       style="fill:none;stroke:#ff0000;stroke-width:0.0050184;stroke-linecap:round;stroke-linejoin:round;stroke-miterlimit:4;stroke-opacity:1;stroke-dasharray:none"
       id="path4406"
       sodipodi:cx="192.32143"
       sodipodi:cy="127.98718"
       sodipodi:rx="5.3571429"
       sodipodi:ry="4.375"
       d="m 197.67857,127.98718 a 5.3571429,4.375 0 1 1 -10.71429,0 5.3571429,4.375 0 1 1 10.71429,0 z"
       transform="matrix(0.63806717,0,0,0.78130675,-81.722771,897.69974)" />
    <path
       sodipodi:type="arc"
       style="fill:none;stroke:#ff0000;stroke-width:0.0050184;stroke-linecap:round;stroke-linejoin:round;stroke-miterlimit:4;stroke-opacity:1;stroke-dasharray:none"
       id="path4406-8"
       sodipodi:cx="192.32143"
       sodipodi:cy="127.98718"
       sodipodi:rx="5.3571429"
       sodipodi:ry="4.375"
       d="m 197.67857,127.98718 a 5.3571429,4.375 0 1 1 -10.71429,0 5.3571429,4.375 0 1 1 10.71429,0 z"
       transform="matrix(0.63806717,0,0,0.78130675,-81.724771,930.95874)" />
    <rect
       style="fill:none;stroke:#ff0000;stroke-width:0.00354331;stroke-linecap:round;stroke-linejoin:round;stroke-miterlimit:4;stroke-opacity:1;stroke-dasharray:none"
       id="rect4426"
       width="75.178574"
       height="65.535713"
       x="5.9210925"
       y="984.20612" />
  </g>
</svg>
