<?xml version="1.0" encoding="utf-8"?>
<!-- Generator: Adobe Illustrator 15.1.0, SVG Export Plug-In . SVG Version: 6.00 Build 0)  -->
<!DOCTYPE svg PUBLIC "-//W3C//DTD SVG 1.1//EN" "http://www.w3.org/Graphics/SVG/1.1/DTD/svg11.dtd">
<svg version="1.1" xmlns="http://www.w3.org/2000/svg" xmlns:xlink="http://www.w3.org/1999/xlink" x="0px" y="0px"
	 width="2157.875px" height="1105.512px" viewBox="0 0 2157.875 1105.512" enable-background="new 0 0 2157.875 1105.512"
	 xml:space="preserve">
<g id="box" xmlns:dc="http://purl.org/dc/elements/1.1/" xmlns:cc="http://creativecommons.org/ns#" xmlns:svg="http://www.w3.org/2000/svg" xmlns:rdf="http://www.w3.org/1999/02/22-rdf-syntax-ns#" xmlns:sodipodi="http://sodipodi.sourceforge.net/DTD/sodipodi-0.dtd" xmlns:inkscape="http://www.inkscape.org/namespaces/inkscape" sodipodi:docname="dessin.svg" inkscape:version="0.48.3.1 r9886">
	
		<sodipodi:namedview  units="mm" inkscape:window-maximized="1" fit-margin-bottom="0" fit-margin-right="0" fit-margin-left="0" showgrid="false" inkscape:current-layer="layer1" fit-margin-top="0" inkscape:document-units="mm" inkscape:pageshadow="2" inkscape:pageopacity="0.0" borderopacity="1.0" bordercolor="#666666" pagecolor="#ffffff" id="base">
		</sodipodi:namedview>
	<path id="bottom" fill="#FFFFFF" stroke="#FF0000" d="M10.63,10.63h36.832v10.63h36.301V10.63h37.009v10.63h36.3V10.63h37.009
		v10.63h36.301V10.63h37.009v10.63h36.3V10.63h37.009v10.63h36.301V10.63h37.009v10.63h36.301V10.63h37.009v10.63h36.301V10.63
		h37.01v10.63h36.301V10.63h37.009v10.63h36.301V10.63h37.009v10.63h36.301V10.63h37.01v10.63h36.3V10.63h37.01v10.63h36.301V10.63
		h37.009v10.63h36.301V10.63h37.009v10.63h36.301V10.63h36.832v37.475h-10.63v36.944h10.63v37.652h-10.63v36.943h10.63v37.652
		h-10.63v36.944h10.63v37.652h-10.63v36.944h10.63v37.652h-10.63v36.943h10.63v37.652h-10.63v36.943h10.63v37.652h-10.63v36.943
		h10.63v37.652h-10.63v36.944h10.63v37.652h-10.63v36.943h10.63v37.475h-36.832v-10.63h-36.301v10.63H963.48v-10.63H927.18v10.63
		h-37.01v-10.63h-36.3v10.63h-37.01v-10.63h-36.3v10.63h-37.01v-10.63H707.25v10.63h-37.009v-10.63H633.94v10.63h-37.009v-10.63
		h-36.301v10.63h-37.01v-10.63H487.32v10.63h-37.009v-10.63h-36.301v10.63h-37.009v-10.63h-36.301v10.63h-37.009v-10.63h-36.3v10.63
		h-37.009v-10.63h-36.301v10.63h-37.009v-10.63h-36.3v10.63H83.763v-10.63H47.462v10.63H10.63v-37.475h10.63v-36.943H10.63v-37.652
		h10.63v-36.944H10.63v-37.652h10.63v-36.943H10.63v-37.652h10.63v-36.943H10.63v-37.652h10.63v-36.943H10.63v-37.652h10.63v-36.944
		H10.63v-37.652h10.63v-36.944H10.63v-37.652h10.63v-36.943H10.63V85.049h10.63V48.105H10.63V10.63L10.63,10.63z"/>
	<path id="top" fill="#FFFFFF" stroke="#FF0000" d="M1084.251,10.63h36.832v10.63h36.301V10.63h37.01v10.63h36.301V10.63h37.008
		v10.63h36.301V10.63h37.01v10.63h36.301V10.63h37.01v10.63h36.301V10.63h37.008v10.63h36.301V10.63h37.01v10.63h36.301V10.63h37.01
		v10.63h36.299V10.63h37.01v10.63h36.301V10.63h37.01v10.63h36.301V10.63h37.008v10.63h36.301V10.63h37.01v10.63h36.301V10.63h37.01
		v10.63h36.301V10.63h37.008v10.63h36.301V10.63h36.832v37.475h-10.629v36.944h10.629v37.652h-10.629v36.943h10.629v37.652h-10.629
		v36.944h10.629v37.652h-10.629v36.944h10.629v37.652h-10.629v36.943h10.629v37.652h-10.629v36.943h10.629v37.652h-10.629v36.943
		h10.629v37.652h-10.629v36.944h10.629v37.652h-10.629v36.943h10.629v37.475h-36.832v-10.63h-36.301v10.63h-37.008v-10.63h-36.301
		v10.63h-37.01v-10.63h-36.301v10.63h-37.01v-10.63h-36.301v10.63h-37.008v-10.63h-36.301v10.63h-37.01v-10.63h-36.301v10.63h-37.01
		v-10.63h-36.299v10.63h-37.01v-10.63h-36.301v10.63h-37.01v-10.63h-36.301v10.63h-37.008v-10.63h-36.301v10.63h-37.01v-10.63
		h-36.301v10.63h-37.01v-10.63h-36.301v10.63h-37.008v-10.63h-36.301v10.63h-37.01v-10.63h-36.301v10.63h-36.832v-37.475h10.631
		v-36.943h-10.631v-37.652h10.631v-36.944h-10.631v-37.652h10.631v-36.943h-10.631v-37.652h10.631v-36.943h-10.631v-37.652h10.631
		v-36.943h-10.631v-37.652h10.631v-36.944h-10.631v-37.652h10.631v-36.944h-10.631v-37.652h10.631v-36.943h-10.631V85.049h10.631
		V48.105h-10.631V10.63L1084.251,10.63z"/>
	<path id="font" fill="#FFFFFF" stroke="#FF0000" d="M1084.251,740.551h36.479v-10.63h37.01v10.63h36.299v-10.63h37.01v10.63h36.301
		v-10.63h37.01v10.63h36.301v-10.63h37.008v10.63h36.301v-10.63h37.01v10.63h36.301v-10.63h37.01v10.63h36.301v-10.63h37.008v10.63
		h36.301v-10.63h37.01v10.63h36.301v-10.63h37.01v10.63h36.299v-10.63h37.01v10.63h36.301v-10.63h37.01v10.63h36.301v-10.63h37.008
		v10.63h36.301v-10.63h37.01v10.63h36.301v-10.63h37.01v10.63h36.477v52.146h-10.629v51.613h10.629v52.146h-36.477v10.63h-37.01
		v-10.63h-36.301v10.63h-37.01v-10.63h-36.301v10.63h-37.008v-10.63h-36.301v10.63h-37.01v-10.63h-36.301v10.63h-37.01v-10.63
		h-36.299v10.63h-37.01v-10.63h-36.301v10.63h-37.01v-10.63h-36.301v10.63h-37.008v-10.63h-36.301v10.63h-37.01v-10.63h-36.301
		v10.63h-37.01v-10.63h-36.301v10.63h-37.008v-10.63h-36.301v10.63h-37.01v-10.63h-36.301v10.63h-37.01v-10.63h-36.299v10.63h-37.01
		v-10.63h-36.479v-52.146h10.631v-51.613h-10.631V740.551z"/>
	<path id="back" fill="#FFFFFF" stroke="#FF0000" d="M10.63,740.551h36.478v-10.63h37.009v10.63h36.301v-10.63h37.009v10.63h36.3
		v-10.63h37.009v10.63h36.301v-10.63h37.009v10.63h36.3v-10.63h37.009v10.63h36.301v-10.63h37.009v10.63h36.301v-10.63h37.009v10.63
		h36.301v-10.63h37.009v10.63h36.301v-10.63h37.01v10.63h36.301v-10.63h37.009v10.63h36.301v-10.63h37.009v10.63h36.301v-10.63
		h37.009v10.63h36.301v-10.63h37.01v10.63h36.3v-10.63h37.01v10.63h36.478v52.146h-10.63v51.613h10.63v52.146h-36.478v10.63h-37.01
		v-10.63h-36.3v10.63h-37.01v-10.63h-36.301v10.63h-37.009v-10.63h-36.301v10.63h-37.009v-10.63h-36.301v10.63h-37.009v-10.63
		h-36.301v10.63h-37.01v-10.63h-36.301v10.63h-37.009v-10.63h-36.301v10.63h-37.009v-10.63h-36.301v10.63h-37.009v-10.63h-36.301
		v10.63h-37.009v-10.63h-36.3v10.63h-37.009v-10.63h-36.301v10.63h-37.009v-10.63h-36.301v10.63h-37.009v-10.63H84.117v10.63H47.107
		v-10.63H10.63v-52.146h10.63v-51.613H10.63V740.551L10.63,740.551z"/>
	<path id="left_side" fill="#FFFFFF" stroke="#FF0000" d="M723.551,928.347h26.491v-10.63h37.652v10.63h36.943v-10.63h37.652v10.63
		h36.944v-10.63h37.652v10.63h36.943v-10.63h37.652v10.63h36.943v-10.63h37.652v10.63h36.943v-10.63h37.652v10.63h36.943v-10.63
		h37.652v10.63h36.945v-10.63h37.652v10.63h36.943v-10.63h37.652v10.63h26.49v51.791h10.631v52.323h-10.631v51.791h-26.49v10.63
		h-37.652v-10.63h-36.943v10.63h-37.652v-10.63h-36.945v10.63h-37.652v-10.63h-36.943v10.63h-37.652v-10.63h-36.943v10.63h-37.652
		v-10.63h-36.943v10.63H973.83v-10.63h-36.943v10.63h-37.652v-10.63H862.29v10.63h-37.652v-10.63h-36.943v10.63h-37.652v-10.63
		h-26.491v-51.791h-10.63v-52.323h10.63V928.347z"/>
	<path id="right_side" fill="#FFFFFF" stroke="#FF0000" d="M13.26,928.347h26.491v-10.63h37.652v10.63h36.944v-10.63h37.652v10.63
		h36.943v-10.63h37.652v10.63h36.944v-10.63h37.652v10.63h36.943v-10.63h37.652v10.63h36.944v-10.63h37.652v10.63h36.943v-10.63
		h37.652v10.63h36.943v-10.63h37.652v10.63h36.944v-10.63h37.652v10.63h26.49v51.791h10.63v52.323h-10.63v51.791h-26.49v10.63
		h-37.652v-10.63h-36.944v10.63h-37.652v-10.63h-36.943v10.63h-37.652v-10.63h-36.943v10.63H412.73v-10.63h-36.944v10.63h-37.652
		v-10.63h-36.943v10.63h-37.652v-10.63h-36.944v10.63h-37.652v-10.63h-36.943v10.63h-37.652v-10.63H77.403v10.63H39.75v-10.63H13.26
		v-51.791H2.63v-52.323h10.63V928.347z"/>
</g>
<g id="Ajouts">
	<g id="Up">
		<g id="Left">
			<g id="Button_Next">
				<circle id="Round_1_" fill="#FFFFFF" stroke="#FF0000" cx="383.947" cy="585.849" r="83"/>
				<path id="Image_1_" d="M434.88,584.332l-46.333-30.844c-1.212-0.812-2.779-0.889-4.055-0.201
					c-1.284,0.695-2.086,2.03-2.086,3.49v17.545h-40.53c-0.033,0-0.063,0.009-0.096,0.01c-5.912,0.062-10.526,5.725-10.526,12.957
					c0,6.896,4.203,12.358,9.724,12.898c0.29,0.067,0.588,0.111,0.898,0.111h40.53v18.179c0,1.459,0.803,2.795,2.086,3.486
					c0.585,0.312,1.226,0.467,1.866,0.467c0.761,0,1.525-0.228,2.189-0.66l46.333-30.86c1.104-0.737,1.76-1.969,1.76-3.289
					C436.64,586.293,435.984,585.062,434.88,584.332z"/>
			</g>
			<g id="Button_Cancel">
				<circle id="Round" fill="#FFFFFF" stroke="#FF0000" cx="175.947" cy="585.849" r="83"/>
				<path id="Image" d="M218.979,562.771l-19.953-19.96L175.94,565.89l-23.064-23.079l-19.96,19.96l23.079,23.071l-23.079,23.078
					l19.96,19.967l23.064-23.077l23.085,23.077l19.953-19.967l-23.071-23.078L218.979,562.771z"/>
			</g>
		</g>
		<g id="Right">
			<g id="Share">
				<g id="Button_Share">
					<circle fill="#FFFFFF" stroke="#FF0000" cx="794.291" cy="585.849" r="83"/>
					<g id="Image_2_">
						<path d="M820.534,601.594c-3.606,0-6.919,1.227-9.574,3.267l-27.393-16.435c0.138-0.841,0.228-1.699,0.228-2.577
							c0-0.881-0.09-1.737-0.228-2.578l27.393-16.436c2.655,2.043,5.968,3.269,9.574,3.269c8.695,0,15.746-7.051,15.746-15.746
							s-7.05-15.746-15.746-15.746c-8.694,0-15.745,7.051-15.745,15.746c0,0.878,0.09,1.736,0.229,2.577l-27.393,16.435
							c-2.655-2.04-5.967-3.266-9.576-3.266c-8.695,0-15.746,7.05-15.746,15.745s7.051,15.745,15.746,15.745
							c3.609,0,6.921-1.225,9.576-3.268l27.393,16.435c-0.14,0.843-0.229,1.698-0.229,2.578c0,8.695,7.051,15.746,15.745,15.746
							c8.695,0,15.746-7.051,15.746-15.746C836.279,608.645,829.229,601.594,820.534,601.594z"/>
					</g>
				</g>
				<g id="On_what_x3F_">
					<path id="Twitter" d="M951.773,626.548c-14.872,0-26.93,12.059-26.93,26.93c0,14.872,12.058,26.931,26.93,26.931
						s26.93-12.059,26.93-26.931C978.703,638.603,966.645,626.548,951.773,626.548z M965.172,647.433l0.02,0.857
						c0,8.765-6.67,18.863-18.866,18.863c-3.742,0-7.227-1.098-10.162-2.979c0.52,0.06,1.047,0.096,1.582,0.096
						c3.107,0,5.966-1.062,8.233-2.837c-2.9-0.053-5.349-1.973-6.193-4.605c0.408,0.075,0.818,0.114,1.249,0.114
						c0.606,0,1.192-0.078,1.748-0.229c-3.033-0.611-5.319-3.287-5.319-6.499v-0.086c0.896,0.496,1.915,0.796,3.003,0.832
						c-1.778-1.19-2.948-3.219-2.948-5.517c0-1.216,0.325-2.354,0.896-3.333c3.268,4.011,8.155,6.653,13.665,6.93
						c-0.113-0.486-0.171-0.996-0.171-1.512c0-3.662,2.969-6.628,6.631-6.628c1.906,0,3.629,0.803,4.842,2.091
						c1.51-0.299,2.93-0.852,4.212-1.607c-0.497,1.549-1.546,2.847-2.916,3.669c1.338-0.158,2.62-0.52,3.807-1.042
						C967.595,645.335,966.467,646.502,965.172,647.433z"/>
					<path id="WordPress" d="M929.285,504.334c4.229-7.889,12.709-13.046,22.489-13.046c6.331,0,12.114,2.697,16.556,6.505
						c-1.269-0.245-2.655,0.03-4.05,0.828c-3.269,1.875-4.336,7.179-0.1,9.842c2.646,1.654,3.587,5.794,3.499,8.321
						c-0.087,2.534-6.149,14.164-6.149,14.164l-5.905-20.271c0,0-0.203-1.422-0.203-1.832c0-0.518,0.17-1.15,0.489-1.512
						c0.22-0.241,0.556-0.747,0.953-0.747h2.798v-2.252H944.45v2.252h0.47c0.5,0,0.986,0.67,1.456,1.151
						c0.556,0.573,1.254,2.731,2.102,4.971l2.212,7.285l-4.768,11.017l-5.229-22.017c0,0,0.153-1.508,0.47-1.765
						c0.207-0.177,0.522-0.643,0.89-0.643h0.144v-2.252H929.285z M932.267,508.159c0,0-1.23-1.573-2.536-1.573h-1.325
						c-1.278,2.818-1.985,6.601-1.985,10.068c0,10.431,6.396,19.376,15.509,23.188L932.267,508.159z M973.591,504.133
						c0.482,2.286,0.381,5.058-0.558,8.108c-2.451,7.937-8.52,22.214-10.869,27.653c8.819-3.938,14.962-12.729,14.962-22.947
						C977.126,512.267,975.834,507.887,973.591,504.133z M952.285,525.562l-6.481,15.833c1.915,0.458,3.913,0.709,5.97,0.709
						c2.13,0,4.196-0.265,6.173-0.756L952.285,525.562z"/>
					<path id="Facebook" d="M951.773,561.736c-14.297,0-25.89,11.593-25.89,25.89c0,14.298,11.593,25.89,25.89,25.89
						c14.298,0,25.89-11.592,25.89-25.89C977.663,573.325,966.071,561.736,951.773,561.736z M958.467,587.623l-4.245,0.003
						l-0.003,15.533h-5.821v-15.533h-3.884v-5.354l3.884-0.003l-0.006-3.151c0-4.367,1.183-7.025,6.326-7.025h4.286v5.357h-2.681
						c-2.003,0-2.102,0.745-2.102,2.143l-0.006,2.677h4.816L958.467,587.623z"/>
				</g>
			</g>
			<path id="Question_Mark" d="M884.291,475.895c-13.494,0-24.471,9.319-24.471,20.774c0,8.647,6.266,16.335,15.697,19.397
				c-0.189,3.236-0.995,6.29-2.399,9.096c-1.149,2.294-1.408,3.624-0.891,4.591c0.313,0.589,0.883,0.928,1.562,0.928
				c0.002,0,0.004,0,0.007,0c0.903,0,3.303-0.034,18.497-14.377c9.861-2.885,16.468-10.744,16.468-19.635
				C908.761,485.214,897.784,475.895,884.291,475.895z M891.41,513.758l-0.277,0.078l-0.217,0.206
				c-10.293,9.73-14.519,12.667-16.168,13.552c0.12-0.296,0.287-0.663,0.514-1.118c1.75-3.496,2.675-7.333,2.746-11.402l0.018-1.071
				l-0.938-0.266c-8.863-2.526-14.818-9.386-14.818-17.066c0-9.961,9.878-18.064,22.021-18.064c12.141,0,22.019,8.104,22.019,18.064
				C906.311,504.384,900.323,511.25,891.41,513.758z M886.12,509.176v3.155c0,0.425-0.311,0.769-0.695,0.769h-2.463
				c-0.384,0-0.695-0.344-0.695-0.769v-3.155c0-0.425,0.312-0.769,0.695-0.769h2.463C885.809,508.407,886.12,508.752,886.12,509.176
				z M889.113,484.287c0.477,0.52,0.719,1.187,0.719,1.983v6.309c0,0.866-0.207,1.654-0.617,2.34l-3.192,5.381v5.72
				c0,0.425-0.311,0.769-0.695,0.769h-2.27c-0.384,0-0.695-0.344-0.695-0.769v-5.358c0-0.941,0.199-1.744,0.59-2.385l3.236-5.341
				v-5.682h-3.796v5.539c0,0.426-0.312,0.77-0.696,0.77h-2.253c-0.385,0-0.695-0.344-0.695-0.77v-6.523
				c0-0.799,0.245-1.468,0.73-1.987c0.478-0.511,1.084-0.771,1.796-0.771h6.03C888.031,483.512,888.64,483.773,889.113,484.287z"/>
		</g>
		<g id="Nfc">
			<g>
				<path fill-rule="evenodd" clip-rule="evenodd" fill="#FFFFFF" d="M93.245,59.731c49.258,0,98.52,0,147.778,0
					c0,57.057,0,114.114,0,171.171c-49.354,0-98.709,0-148.063,0c0-56.773,0-113.542,0-170.316
					C92.935,60.182,92.912,59.779,93.245,59.731z M99.521,90.828c0,7.222,0,14.318,0,18.543c0,29.65,0,63.079,0,93.003
					c0,6.626-0.503,14.375,1.426,17.402c2.795,4.384,8.244,3.709,16.261,3.709c33.141,0,65.434,0,98.424,0
					c5.24,0,12.399,0.728,15.405-1.141c4.995-3.105,3.995-10.786,3.995-19.685c0-39.811,0-76.927,0-115.826
					c0-5.81,0.445-14.165-2.282-17.117c-2.995-3.24-8.803-2.567-15.691-2.567c-31.87,0-63.763,0-94.715,0
					c-5.305,0-12.606-0.531-16.261,0.285C97.327,69.388,99.521,80.051,99.521,90.828z"/>
				<path fill-rule="evenodd" clip-rule="evenodd" fill="#FFFFFF" d="M200.227,79.416c7.661-2.131,10.112,12.058,11.697,18.258
					c3.566,13.953,3.551,31.833-0.285,45.36c-1.503,5.301-4.1,16.199-8.844,16.832c-3.669,0.489-6.06-2.306-6.276-4.564
					c-0.215-2.251,1.808-5.426,2.853-8.273c3.01-8.206,5.101-15.481,5.135-27.388c0.033-11.523-1.833-19.24-5.135-27.958
					C197.635,87.102,194.021,81.143,200.227,79.416z"/>
				<path fill-rule="evenodd" clip-rule="evenodd" fill="#FFFFFF" d="M182.254,87.404c6.091-1.24,8.371,8.425,9.985,14.265
					c3.213,11.623,2.49,26.642-0.571,37.087c-1.5,5.12-3.432,12.875-7.988,13.123c-2.511,0.137-5.406-1.806-5.706-4.564
					c-0.354-3.259,3.348-9.417,4.279-12.838c3.037-11.162,1.931-26.234-1.998-36.231c-0.831-2.115-2.324-4.178-2.282-5.992
					C178.041,89.339,180.426,87.776,182.254,87.404z"/>
				<path fill-rule="evenodd" clip-rule="evenodd" fill="#FFFFFF" d="M130.332,118.5c-1.803,5.458,4.942,18.136-2.282,19.114
					c-2.278,0.308-5.047-2.074-5.992-3.994c-1.975-4.019-2.754-11.221-2.282-18.258c0.333-4.97,1.712-13.364,5.706-13.693
					c2.972-0.246,6.616,4.034,9.129,5.991c6.488,5.053,10.844,8.473,16.832,13.124c2.685,2.085,5.319,4.37,8.844,5.991
					c2.114-5.479,1.584-11.789-0.286-17.688c-1.07-3.378-5.515-11.968,0.571-13.123c7.268-1.379,10.915,13.811,11.412,20.256
					c0.681,8.83-2.256,24.887-8.273,25.39c-2.94,0.246-6.862-3.403-9.129-5.135C146.409,130.229,139.353,123.393,130.332,118.5z"/>
				<path fill-rule="evenodd" clip-rule="evenodd" fill="#FFFFFF" d="M206.218,177.554c-0.473,1.904-0.954,3.802-1.427,5.706
					c-12.32-6.845-20.661,10.151-12.267,16.832c2.605,2.074,8.238,2.21,12.267,0.856c0.292,1.756,1.161,4.283,0.856,5.706
					c-11.668,3.557-22.353-1.15-23.678-11.126C180.036,180.989,192.092,172.822,206.218,177.554z"/>
				<path fill-rule="evenodd" clip-rule="evenodd" fill="#FFFFFF" d="M147.449,197.524c-0.164-4.599-0.422-14.026-0.285-20.825
					c2.187,0,4.375,0,6.562,0c0,10.175,0,20.35,0,30.525c-1.933,0.635-5.018,0.118-7.417,0.285
					c-3.722-7.405-8.256-13.997-11.412-21.967c-0.302,6.389,0.205,14.44,0,21.682c-1.655,0.627-4.441,0.123-6.562,0.285
					c0-10.271,0-20.541,0-30.811c2.758,0,5.516,0,8.273,0C140.226,183.636,144.517,189.901,147.449,197.524z"/>
				<path fill-rule="evenodd" clip-rule="evenodd" fill="#FFFFFF" d="M178.26,176.699c-0.157,1.935,0.335,4.519-0.285,5.991
					c-3.709,0-7.418,0-11.126,0c-0.663,1.62-0.097,4.467-0.285,6.562c3.614,0,7.227,0,10.841,0c0.464,1.404,0.464,4.587,0,5.991
					c-3.614,0-7.227,0-10.841,0c0,3.994,0,7.988,0,11.982c-1.765,0.467-5.367,0.467-7.132,0c0-10.175,0-20.351,0-30.525
					C165.707,176.699,171.983,176.699,178.26,176.699z"/>
				<path fill-rule="evenodd" clip-rule="evenodd" d="M106.083,67.434c3.655-0.816,10.957-0.285,16.261-0.285
					c30.952,0,62.845,0,94.715,0c6.888,0,12.696-0.673,15.691,2.567c2.728,2.952,2.282,11.308,2.282,17.117
					c0,38.899,0,76.015,0,115.826c0,8.899,1,16.58-3.995,19.685c-3.006,1.869-10.165,1.141-15.405,1.141c-32.99,0-65.283,0-98.424,0
					c-8.017,0-13.466,0.675-16.261-3.709c-1.93-3.027-1.426-10.776-1.426-17.402c0-29.924,0-63.353,0-93.003
					c0-4.225,0-11.322,0-18.543C99.521,80.051,97.327,69.388,106.083,67.434z M199.371,91.684
					c3.302,8.717,5.168,16.434,5.135,27.958c-0.034,11.907-2.125,19.182-5.135,27.388c-1.044,2.848-3.067,6.022-2.853,8.273
					c0.216,2.259,2.606,5.053,6.276,4.564c4.745-0.633,7.341-11.531,8.844-16.832c3.836-13.528,3.851-31.408,0.285-45.36
					c-1.584-6.2-4.036-20.39-11.697-18.258C194.021,81.143,197.635,87.102,199.371,91.684z M177.975,92.253
					c-0.042,1.813,1.451,3.877,2.282,5.992c3.929,9.997,5.035,25.069,1.998,36.231c-0.931,3.42-4.634,9.579-4.279,12.838
					c0.3,2.758,3.194,4.701,5.706,4.564c4.556-0.248,6.488-8.003,7.988-13.123c3.061-10.445,3.784-25.464,0.571-37.087
					c-1.614-5.839-3.894-15.504-9.985-14.265C180.426,87.776,178.041,89.339,177.975,92.253z M154.581,136.473
					c2.267,1.732,6.189,5.381,9.129,5.135c6.018-0.503,8.954-16.56,8.273-25.39c-0.497-6.445-4.144-21.635-11.412-20.256
					c-6.086,1.155-1.641,9.745-0.571,13.123c1.87,5.899,2.399,12.209,0.286,17.688c-3.525-1.621-6.159-3.906-8.844-5.991
					c-5.988-4.651-10.344-8.07-16.832-13.124c-2.513-1.957-6.157-6.236-9.129-5.991c-3.994,0.33-5.373,8.723-5.706,13.693
					c-0.472,7.038,0.307,14.24,2.282,18.258c0.944,1.92,3.714,4.302,5.992,3.994c7.224-0.978,0.479-13.656,2.282-19.114
					C139.353,123.393,146.409,130.229,154.581,136.473z M181.969,195.527c1.325,9.976,12.01,14.683,23.678,11.126
					c0.305-1.422-0.563-3.949-0.856-5.706c-4.029,1.354-9.662,1.218-12.267-0.856c-8.394-6.681-0.053-23.677,12.267-16.832
					c0.473-1.904,0.954-3.802,1.427-5.706C192.092,172.822,180.036,180.989,181.969,195.527z M136.608,176.699
					c-2.758,0-5.515,0-8.273,0c0,10.27,0,20.54,0,30.811c2.121-0.162,4.907,0.342,6.562-0.285c0.205-7.242-0.302-15.293,0-21.682
					c3.156,7.971,7.69,14.562,11.412,21.967c2.4-0.167,5.485,0.35,7.417-0.285c0-10.175,0-20.351,0-30.525c-2.187,0-4.375,0-6.562,0
					c-0.137,6.799,0.121,16.226,0.285,20.825C144.517,189.901,140.226,183.636,136.608,176.699z M159.431,176.699
					c0,10.175,0,20.35,0,30.525c1.765,0.467,5.367,0.467,7.132,0c0-3.994,0-7.988,0-11.982c3.614,0,7.227,0,10.841,0
					c0.464-1.403,0.464-4.587,0-5.991c-3.614,0-7.227,0-10.841,0c0.188-2.095-0.377-4.942,0.285-6.562c3.708,0,7.417,0,11.126,0
					c0.62-1.472,0.128-4.056,0.285-5.991C171.983,176.699,165.707,176.699,159.431,176.699z"/>
			</g>
		</g>
	</g>
	
		<path id="polygon204" inkscape:connector-curvature="0" fill="none" stroke="#FF0000" stroke-linecap="round" stroke-linejoin="round" d="
		M198.425,844.256h55.788v17.125l-8.229,5.65h-39.584l-7.976-5.65V844.256z"/>
	<polygon fill="#FFFFFF" stroke="#FF0000" points="1426.937,965.285 1426.937,922.766 1469.457,922.766 	"/>
	<polygon fill="#FFFFFF" stroke="#FF0000" points="1469.457,929.246 1469.457,971.766 1426.937,971.766 	"/>
	<polygon fill="#FFFFFF" stroke="#FF0000" points="1426.937,1026.285 1426.937,983.766 1469.457,983.766 	"/>
	<polygon fill="#FFFFFF" stroke="#FF0000" points="1469.457,990.246 1469.457,1032.766 1426.937,1032.766 	"/>
	<polygon fill="#FFFFFF" stroke="#FF0000" points="1426.937,1087.785 1426.937,1045.266 1469.457,1045.266 	"/>
	<polygon fill="#FFFFFF" stroke="#FF0000" points="1469.457,1051.746 1469.457,1094.266 1426.937,1094.266 	"/>
	<polygon fill="#FFFFFF" stroke="#FF0000" points="1474.177,965.285 1474.177,922.766 1516.697,922.766 	"/>
	<polygon fill="#FFFFFF" stroke="#FF0000" points="1516.697,929.246 1516.697,971.766 1474.177,971.766 	"/>
	<polygon fill="#FFFFFF" stroke="#FF0000" points="1474.177,1026.285 1474.177,983.766 1516.697,983.766 	"/>
	<polygon fill="#FFFFFF" stroke="#FF0000" points="1516.697,990.246 1516.697,1032.766 1474.177,1032.766 	"/>
	<polygon fill="#FFFFFF" stroke="#FF0000" points="1474.177,1087.785 1474.177,1045.266 1516.697,1045.266 	"/>
	<polygon fill="#FFFFFF" stroke="#FF0000" points="1516.697,1051.746 1516.697,1094.266 1474.177,1094.266 	"/>
	<polygon fill="#FFFFFF" stroke="#FF0000" points="1522.488,964.285 1522.488,921.766 1565.007,921.766 	"/>
	<polygon fill="#FFFFFF" stroke="#FF0000" points="1565.007,928.246 1565.007,970.766 1522.488,970.766 	"/>
	<polygon fill="#FFFFFF" stroke="#FF0000" points="1522.488,1025.285 1522.488,982.766 1565.007,982.766 	"/>
	<polygon fill="#FFFFFF" stroke="#FF0000" points="1565.007,989.246 1565.007,1031.766 1522.488,1031.766 	"/>
	<polygon fill="#FFFFFF" stroke="#FF0000" points="1522.488,1086.785 1522.488,1044.266 1565.007,1044.266 	"/>
	<polygon fill="#FFFFFF" stroke="#FF0000" points="1565.007,1050.746 1565.007,1093.266 1522.488,1093.266 	"/>
	<polygon fill="#FFFFFF" stroke="#FF0000" points="1569.937,964.285 1569.937,921.766 1612.457,921.766 	"/>
	<polygon fill="#FFFFFF" stroke="#FF0000" points="1612.457,928.246 1612.457,970.766 1569.937,970.766 	"/>
	<polygon fill="#FFFFFF" stroke="#FF0000" points="1569.937,1025.285 1569.937,982.766 1612.457,982.766 	"/>
	<polygon fill="#FFFFFF" stroke="#FF0000" points="1612.457,989.246 1612.457,1031.766 1569.937,1031.766 	"/>
	<polygon fill="#FFFFFF" stroke="#FF0000" points="1569.937,1086.785 1569.937,1044.266 1612.457,1044.266 	"/>
	<polygon fill="#FFFFFF" stroke="#FF0000" points="1612.457,1050.746 1612.457,1093.266 1569.937,1093.266 	"/>
	<polygon fill="#FFFFFF" stroke="#FF0000" points="1618.937,964.285 1618.937,921.766 1661.457,921.766 	"/>
	<polygon fill="#FFFFFF" stroke="#FF0000" points="1661.457,928.246 1661.457,970.766 1618.937,970.766 	"/>
	<polygon fill="#FFFFFF" stroke="#FF0000" points="1618.937,1025.285 1618.937,982.766 1661.457,982.766 	"/>
	<polygon fill="#FFFFFF" stroke="#FF0000" points="1661.457,989.246 1661.457,1031.766 1618.937,1031.766 	"/>
	<polygon fill="#FFFFFF" stroke="#FF0000" points="1618.937,1086.785 1618.937,1044.266 1661.457,1044.266 	"/>
	<polygon fill="#FFFFFF" stroke="#FF0000" points="1661.457,1050.746 1661.457,1093.266 1618.937,1093.266 	"/>
	<polygon fill="#FFFFFF" stroke="#FF0000" points="1667.437,964.285 1667.437,921.766 1709.957,921.766 	"/>
	<polygon fill="#FFFFFF" stroke="#FF0000" points="1709.957,928.246 1709.957,970.766 1667.437,970.766 	"/>
	<polygon fill="#FFFFFF" stroke="#FF0000" points="1667.437,1025.285 1667.437,982.766 1709.957,982.766 	"/>
	<polygon fill="#FFFFFF" stroke="#FF0000" points="1709.957,989.246 1709.957,1031.766 1667.437,1031.766 	"/>
	<polygon fill="#FFFFFF" stroke="#FF0000" points="1667.437,1086.785 1667.437,1044.266 1709.957,1044.266 	"/>
	<polygon fill="#FFFFFF" stroke="#FF0000" points="1709.957,1050.746 1709.957,1093.266 1667.437,1093.266 	"/>
	<polygon fill="#FFFFFF" stroke="#FF0000" points="1716.488,964.285 1716.488,921.766 1759.007,921.766 	"/>
	<polygon fill="#FFFFFF" stroke="#FF0000" points="1759.007,928.246 1759.007,970.766 1716.488,970.766 	"/>
	<polygon fill="#FFFFFF" stroke="#FF0000" points="1716.488,1025.285 1716.488,982.766 1759.007,982.766 	"/>
	<polygon fill="#FFFFFF" stroke="#FF0000" points="1759.007,989.246 1759.007,1031.766 1716.488,1031.766 	"/>
	<polygon fill="#FFFFFF" stroke="#FF0000" points="1716.488,1086.785 1716.488,1044.266 1759.007,1044.266 	"/>
	<polygon fill="#FFFFFF" stroke="#FF0000" points="1759.007,1050.746 1759.007,1093.266 1716.488,1093.266 	"/>
	<polygon fill="#FFFFFF" stroke="#FF0000" points="1763.937,964.285 1763.937,921.766 1806.457,921.766 	"/>
	<polygon fill="#FFFFFF" stroke="#FF0000" points="1806.457,928.246 1806.457,970.766 1763.937,970.766 	"/>
	<polygon fill="#FFFFFF" stroke="#FF0000" points="1763.937,1025.285 1763.937,982.766 1806.457,982.766 	"/>
	<polygon fill="#FFFFFF" stroke="#FF0000" points="1806.457,989.246 1806.457,1031.766 1763.937,1031.766 	"/>
	<polygon fill="#FFFFFF" stroke="#FF0000" points="1763.937,1086.785 1763.937,1044.266 1806.457,1044.266 	"/>
	<polygon fill="#FFFFFF" stroke="#FF0000" points="1806.457,1050.746 1806.457,1093.266 1763.937,1093.266 	"/>
	<rect x="628.846" y="1045.752" fill="#FFFFFF" stroke="#FF0000" width="31.181" height="17.009"/>
	<rect x="787.323" y="1056.59" fill="#FFFFFF" stroke="#FF0000" width="151.937" height="19.842"/>
	<polygon fill="#FFFFFF" stroke="#FF0000" points="1813.662,966.89 1813.662,929.134 1851.417,929.134 	"/>
	<polygon fill="#FFFFFF" stroke="#FF0000" points="1851.417,934.889 1851.417,972.645 1813.662,972.645 	"/>
	<polygon fill="#FFFFFF" stroke="#FF0000" points="1813.662,1021.056 1813.662,983.3 1851.417,983.3 	"/>
	<polygon fill="#FFFFFF" stroke="#FF0000" points="1851.417,989.055 1851.417,1026.811 1813.662,1026.811 	"/>
	<polygon fill="#FFFFFF" stroke="#FF0000" points="1813.662,1075.666 1813.662,1037.91 1851.417,1037.91 	"/>
	<polygon fill="#FFFFFF" stroke="#FF0000" points="1851.417,1043.664 1851.417,1081.42 1813.662,1081.42 	"/>
	<polygon fill="#FFFFFF" stroke="#FF0000" points="1855.609,966.89 1855.609,929.134 1893.365,929.134 	"/>
	<polygon fill="#FFFFFF" stroke="#FF0000" points="1893.365,934.889 1893.365,972.645 1855.609,972.645 	"/>
	<polygon fill="#FFFFFF" stroke="#FF0000" points="1855.609,1021.056 1855.609,983.3 1893.365,983.3 	"/>
	<polygon fill="#FFFFFF" stroke="#FF0000" points="1893.365,989.055 1893.365,1026.811 1855.609,1026.811 	"/>
	<polygon fill="#FFFFFF" stroke="#FF0000" points="1855.609,1075.666 1855.609,1037.91 1893.365,1037.91 	"/>
	<polygon fill="#FFFFFF" stroke="#FF0000" points="1893.365,1043.664 1893.365,1081.42 1855.609,1081.42 	"/>
	<polygon fill="#FFFFFF" stroke="#FF0000" points="1898.507,966.002 1898.507,928.246 1936.263,928.246 	"/>
	<polygon fill="#FFFFFF" stroke="#FF0000" points="1936.263,934.001 1936.263,971.757 1898.507,971.757 	"/>
	<polygon fill="#FFFFFF" stroke="#FF0000" points="1898.507,1020.168 1898.507,982.412 1936.263,982.412 	"/>
	<polygon fill="#FFFFFF" stroke="#FF0000" points="1936.263,988.166 1936.263,1025.922 1898.507,1025.922 	"/>
	<polygon fill="#FFFFFF" stroke="#FF0000" points="1898.507,1074.777 1898.507,1037.021 1936.263,1037.021 	"/>
	<polygon fill="#FFFFFF" stroke="#FF0000" points="1936.263,1042.776 1936.263,1080.532 1898.507,1080.532 	"/>
	<polygon fill="#FFFFFF" stroke="#FF0000" points="1940.641,966.002 1940.641,928.246 1978.397,928.246 	"/>
	<polygon fill="#FFFFFF" stroke="#FF0000" points="1978.397,934.001 1978.397,971.757 1940.641,971.757 	"/>
	<polygon fill="#FFFFFF" stroke="#FF0000" points="1940.641,1020.168 1940.641,982.412 1978.397,982.412 	"/>
	<polygon fill="#FFFFFF" stroke="#FF0000" points="1978.397,988.166 1978.397,1025.922 1940.641,1025.922 	"/>
	<polygon fill="#FFFFFF" stroke="#FF0000" points="1940.641,1074.777 1940.641,1037.021 1978.397,1037.021 	"/>
	<polygon fill="#FFFFFF" stroke="#FF0000" points="1978.397,1042.776 1978.397,1080.532 1940.641,1080.532 	"/>
	<polygon fill="#FFFFFF" stroke="#FF0000" points="1984.151,966.002 1984.151,928.246 2021.907,928.246 	"/>
	<polygon fill="#FFFFFF" stroke="#FF0000" points="2021.907,934.001 2021.907,971.757 1984.151,971.757 	"/>
	<polygon fill="#FFFFFF" stroke="#FF0000" points="1984.151,1020.168 1984.151,982.412 2021.907,982.412 	"/>
	<polygon fill="#FFFFFF" stroke="#FF0000" points="2021.907,988.166 2021.907,1025.922 1984.151,1025.922 	"/>
	<polygon fill="#FFFFFF" stroke="#FF0000" points="1984.151,1074.777 1984.151,1037.021 2021.907,1037.021 	"/>
	<polygon fill="#FFFFFF" stroke="#FF0000" points="2021.907,1042.776 2021.907,1080.532 1984.151,1080.532 	"/>
	<polygon fill="#FFFFFF" stroke="#FF0000" points="2027.217,966.002 2027.217,928.246 2064.973,928.246 	"/>
	<polygon fill="#FFFFFF" stroke="#FF0000" points="2064.973,934.001 2064.973,971.757 2027.217,971.757 	"/>
	<polygon fill="#FFFFFF" stroke="#FF0000" points="2027.217,1020.168 2027.217,982.412 2064.973,982.412 	"/>
	<polygon fill="#FFFFFF" stroke="#FF0000" points="2064.973,988.166 2064.973,1025.922 2027.217,1025.922 	"/>
	<polygon fill="#FFFFFF" stroke="#FF0000" points="2027.217,1074.777 2027.217,1037.021 2064.973,1037.021 	"/>
	<polygon fill="#FFFFFF" stroke="#FF0000" points="2064.973,1042.776 2064.973,1080.532 2027.217,1080.532 	"/>
	<polygon fill="#FFFFFF" stroke="#FF0000" points="2070.773,966.002 2070.773,928.246 2108.528,928.246 	"/>
	<polygon fill="#FFFFFF" stroke="#FF0000" points="2108.528,934.001 2108.528,971.757 2070.773,971.757 	"/>
	<polygon fill="#FFFFFF" stroke="#FF0000" points="2070.773,1020.168 2070.773,982.412 2108.528,982.412 	"/>
	<polygon fill="#FFFFFF" stroke="#FF0000" points="2108.528,988.166 2108.528,1025.922 2070.773,1025.922 	"/>
	<polygon fill="#FFFFFF" stroke="#FF0000" points="2070.773,1074.777 2070.773,1037.021 2108.528,1037.021 	"/>
	<polygon fill="#FFFFFF" stroke="#FF0000" points="2108.528,1042.776 2108.528,1080.532 2070.773,1080.532 	"/>
	<polygon fill="#FFFFFF" stroke="#FF0000" points="2112.906,966.002 2112.906,928.246 2150.662,928.246 	"/>
	<polygon fill="#FFFFFF" stroke="#FF0000" points="2150.662,934.001 2150.662,971.757 2112.906,971.757 	"/>
	<polygon fill="#FFFFFF" stroke="#FF0000" points="2112.906,1020.168 2112.906,982.412 2150.662,982.412 	"/>
	<polygon fill="#FFFFFF" stroke="#FF0000" points="2150.662,988.166 2150.662,1025.922 2112.906,1025.922 	"/>
	<polygon fill="#FFFFFF" stroke="#FF0000" points="2112.906,1074.777 2112.906,1037.021 2150.662,1037.021 	"/>
	<polygon fill="#FFFFFF" stroke="#FF0000" points="2150.662,1042.776 2150.662,1080.532 2112.906,1080.532 	"/>
	<circle fill="#FFFFFF" stroke="#E42520" cx="1004.387" cy="517.458" r="16.229"/>
	<circle fill="#FFFFFF" stroke="#E42520" cx="1004.387" cy="588.387" r="16.229"/>
	<circle fill="#FFFFFF" stroke="#E42520" cx="1004.387" cy="654.238" r="16.229"/>
	<circle fill="#FFFFFF" stroke="#E42520" cx="1039.491" cy="517.458" r="7.229"/>
	<circle fill="#FFFFFF" stroke="#E42520" cx="1039.491" cy="588.387" r="7.229"/>
	<circle fill="#FFFFFF" stroke="#E42520" cx="1039.491" cy="654.238" r="7.229"/>
</g>
</svg>
