<?xml version="1.0" encoding="utf-8"?>
<!-- Generator: Adobe Illustrator 15.1.0, SVG Export Plug-In . SVG Version: 6.00 Build 0)  -->
<!DOCTYPE svg PUBLIC "-//W3C//DTD SVG 1.1//EN" "http://www.w3.org/Graphics/SVG/1.1/DTD/svg11.dtd">
<svg version="1.1" id="Calque_1" xmlns="http://www.w3.org/2000/svg" xmlns:xlink="http://www.w3.org/1999/xlink" x="0px" y="0px"
	 width="1700.79px" height="1133.86px" viewBox="0 0 1700.79 1133.86" enable-background="new 0 0 1700.79 1133.86"
	 xml:space="preserve">
<path id="top" fill="#FFFFFF" stroke="#E52620" d="M9.922,12.846h36.832v10.63h36.301v-10.63h37.01v10.63h36.301v-10.63h37.008
	v10.63h36.301v-10.63h37.01v10.63h36.301v-10.63h37.01v10.63h36.301v-10.63h37.008v10.63h36.301v-10.63h37.01v10.63h36.301v-10.63
	h37.01v10.63h36.299v-10.63h37.01v10.63h36.301v-10.63h37.01v10.63h36.301v-10.63h37.008v10.63h36.301v-10.63h37.01v10.63h36.301
	v-10.63h37.01v10.63h36.301v-10.63h37.008v10.63h36.301v-10.63h36.832v37.475h-10.629v36.944h10.629v37.652h-10.629v36.943h10.629
	v37.652h-10.629v36.944h10.629v37.652h-10.629v36.944h10.629v37.652h-10.629v36.943h10.629v37.652h-10.629v36.943h10.629v37.652
	h-10.629v36.943h10.629v37.652h-10.629v36.945h10.629v37.652h-10.629v36.943h10.629v37.475h-36.832v-10.631h-36.301v10.631h-37.008
	v-10.631h-36.301v10.631h-37.01v-10.631h-36.301v10.631h-37.01v-10.631h-36.301v10.631h-37.008v-10.631h-36.301v10.631h-37.01
	v-10.631h-36.301v10.631h-37.01v-10.631h-36.299v10.631h-37.01v-10.631h-36.301v10.631h-37.01v-10.631h-36.301v10.631h-37.008
	v-10.631h-36.301v10.631h-37.01v-10.631h-36.301v10.631h-37.01v-10.631h-36.301v10.631h-37.008v-10.631h-36.301v10.631h-37.01
	v-10.631H46.754v10.631H9.922v-37.475h10.631V647.09H9.922v-37.652h10.631v-36.945H9.922V534.84h10.631v-36.943H9.922v-37.652
	h10.631v-36.943H9.922v-37.652h10.631v-36.943H9.922v-37.652h10.631v-36.944H9.922v-37.652h10.631v-36.944H9.922v-37.652h10.631
	v-36.943H9.922V87.265h10.631V50.321H9.922V12.846L9.922,12.846z"/>
<path id="font" fill="#FFFFFF" stroke="#E52620" d="M9.922,742.768H46.4v-10.631h37.01v10.631h36.299v-10.631h37.01v10.631h36.301
	v-10.631h37.01v10.631h36.301v-10.631h37.008v10.631h36.301v-10.631h37.01v10.631h36.301v-10.631h37.01v10.631h36.301v-10.631
	h37.008v10.631h36.301v-10.631h37.01v10.631h36.301v-10.631h37.01v10.631h36.299v-10.631h37.01v10.631h36.301v-10.631h37.01v10.631
	h36.301v-10.631h37.008v10.631h36.301v-10.631h37.01v10.631h36.301v-10.631h37.01v10.631h36.477v52.146h-10.629v51.613h10.629
	v52.146h-36.477v10.629h-37.01v-10.629h-36.301v10.629h-37.01v-10.629h-36.301v10.629h-37.008v-10.629h-36.301v10.629h-37.01
	v-10.629h-36.301v10.629h-37.01v-10.629h-36.299v10.629h-37.01v-10.629h-36.301v10.629h-37.01v-10.629h-36.301v10.629H486.26
	v-10.629h-36.301v10.629h-37.01v-10.629h-36.301v10.629h-37.01v-10.629h-36.301v10.629H266.33v-10.629h-36.301v10.629h-37.01
	v-10.629h-36.301v10.629h-37.01v-10.629H83.41v10.629H46.4v-10.629H9.922v-52.146h10.631v-51.613H9.922V742.768z"/>
<rect fill="none" stroke="#E52620" width="1700.79" height="1133.86"/>
</svg>
